<?xml version="1.0" encoding="UTF-8" standalone="no"?>
<!DOCTYPE svg PUBLIC "-//W3C//DTD SVG 1.1//EN" "http://www.w3.org/Graphics/SVG/1.1/DTD/svg11.dtd">
<!-- Generated by Microsoft Visio, SVG Export a3.svg Page-1 -->
<svg xmlns="http://www.w3.org/2000/svg" xmlns:xlink="http://www.w3.org/1999/xlink" xmlns:ev="http://www.w3.org/2001/xml-events"
		xmlns:v="http://schemas.microsoft.com/visio/2003/SVGExtensions/" width="8.5in" height="11in" viewBox="0 0 612 792"
		xml:space="preserve" color-interpolation-filters="sRGB" class="st12">
	<v:documentProperties v:langID="1033" v:viewMarkup="false">
		<v:userDefs>
			<v:ud v:nameU="msvNoAutoConnect" v:val="VT0(1):26"/>
		</v:userDefs>
	</v:documentProperties>

	<style type="text/css">
	<![CDATA[
		.st1 {fill:#ffffff;stroke:#000000;stroke-linecap:round;stroke-linejoin:round;stroke-width:0.75}
		.st2 {fill:#000000}
		.st3 {stroke:#595959;stroke-linecap:round;stroke-linejoin:round;stroke-width:1}
		.st4 {fill:#595959;stroke:none;stroke-linecap:butt;stroke-width:0.75}
		.st5 {fill:#ffffff;stroke:#000000;stroke-linecap:round;stroke-linejoin:round;stroke-width:0.24}
		.st6 {fill:none;stroke:none;stroke-linecap:round;stroke-linejoin:round;stroke-width:0.75}
		.st7 {fill:#000000;font-family:Calibri;font-size:1.00001em}
		.st8 {marker-end:url(#mrkr4-47);stroke:#000000;stroke-linecap:round;stroke-linejoin:round;stroke-width:0.75}
		.st9 {fill:#000000;fill-opacity:1;stroke:#000000;stroke-opacity:1;stroke-width:0.18796992481203}
		.st10 {stroke:#000000;stroke-linecap:butt;stroke-width:0.24}
		.st11 {fill:#000000;font-family:Calibri;font-size:1.99999em}
		.st12 {fill:none;fill-rule:evenodd;font-size:12px;overflow:visible;stroke-linecap:square;stroke-miterlimit:3}
	]]>
	</style>

	<defs id="Markers">
		<g id="lend4">
			<path d="M 2 1 L 0 0 L 2 -1 L 2 1 " style="stroke:none"/>
		</g>
		<marker id="mrkr4-47" class="st9" v:arrowType="4" v:arrowSize="3" v:setback="10.64" refX="-10.64" orient="auto"
				markerUnits="strokeWidth" overflow="visible">
			<use xlink:href="#lend4" transform="scale(-5.32,-5.32) "/>
		</marker>
	</defs>
	<g v:mID="0" v:index="1" v:groupContext="foregroundPage">
		<title>Page-1</title>
		<v:pageProperties v:drawingScale="1" v:pageScale="1" v:drawingUnits="19" v:shadowOffsetX="9" v:shadowOffsetY="-9"/>
		<v:layer v:name="Connector" v:index="0"/>
		<v:layer v:name="Flow Segment" v:index="1"/>
		<g id="group1-1" transform="translate(67.5,-441)" v:mID="1" v:groupContext="group">
			<v:custProps>
				<v:cp v:nameU="AssetNumber" v:lbl="Asset Number" v:prompt="" v:type="0" v:format="" v:sortKey="Asset"
						v:invis="false" v:ask="false" v:langID="1033" v:cal="0"/>
				<v:cp v:nameU="SerialNumber" v:lbl="Serial Number" v:prompt="" v:type="0" v:format="" v:sortKey="Asset"
						v:invis="false" v:ask="false" v:langID="1033" v:cal="0"/>
				<v:cp v:nameU="Location" v:lbl="Location" v:prompt="" v:type="0" v:format="" v:sortKey="Asset" v:invis="false"
						v:ask="false" v:langID="1033" v:cal="0"/>
				<v:cp v:nameU="Building" v:lbl="Building" v:prompt="" v:type="0" v:format="" v:sortKey="Asset" v:invis="false"
						v:ask="false" v:langID="1033" v:cal="0"/>
				<v:cp v:nameU="Room" v:lbl="Room" v:prompt="" v:type="0" v:format="" v:sortKey="Asset" v:invis="false"
						v:ask="false" v:langID="1033" v:cal="0"/>
				<v:cp v:nameU="Manufacturer" v:lbl="Manufacturer" v:prompt="" v:type="0" v:format="" v:sortKey="Equipment"
						v:invis="false" v:ask="false" v:langID="1033" v:cal="0"/>
				<v:cp v:nameU="ProductNumber" v:lbl="Product Number" v:prompt="" v:type="0" v:format="" v:sortKey="Equipment"
						v:invis="false" v:ask="false" v:langID="1033" v:cal="0"/>
				<v:cp v:nameU="PartNumber" v:lbl="Part Number" v:prompt="" v:type="0" v:format="" v:sortKey="Equipment"
						v:invis="false" v:ask="false" v:langID="1033" v:cal="0"/>
				<v:cp v:nameU="ProductDescription" v:lbl="Product Description" v:prompt="" v:type="0" v:format=""
						v:sortKey="Equipment" v:invis="false" v:ask="false" v:langID="1033" v:cal="0"/>
				<v:cp v:nameU="NetworkName" v:lbl="Network Name" v:prompt="" v:type="0" v:format="" v:sortKey="Network"
						v:invis="false" v:ask="false" v:langID="1033" v:cal="0"/>
				<v:cp v:nameU="IPAddress" v:lbl="IP Address" v:prompt="" v:type="0" v:format="" v:sortKey="Network" v:invis="false"
						v:ask="false" v:langID="1033" v:cal="0"/>
				<v:cp v:nameU="SubnetMask" v:lbl="Subnet Mask" v:prompt="" v:type="0" v:format="" v:sortKey="Network"
						v:invis="false" v:ask="false" v:langID="1033" v:cal="0"/>
				<v:cp v:nameU="AdminInterface" v:lbl="Administrative Interface" v:prompt="" v:type="0" v:format=""
						v:sortKey="Network" v:invis="false" v:ask="false" v:langID="1033" v:cal="0"/>
				<v:cp v:nameU="NumberofPorts" v:lbl="Number of Ports" v:prompt="" v:type="0" v:format="" v:sortKey="Network"
						v:invis="false" v:ask="false" v:langID="1033" v:cal="0"/>
				<v:cp v:nameU="CommunityString" v:lbl="Community String" v:prompt="" v:type="0" v:format="" v:sortKey="Network"
						v:invis="false" v:ask="false" v:langID="1033" v:cal="0"/>
				<v:cp v:nameU="NetworkDescription" v:lbl="Network Description" v:prompt="" v:type="0" v:format=""
						v:sortKey="Network" v:invis="false" v:ask="false" v:langID="1033" v:cal="0"/>
				<v:cp v:nameU="MACAddress" v:lbl="MAC Address" v:prompt="" v:type="0" v:format="" v:sortKey="Network"
						v:invis="false" v:ask="false" v:langID="1033" v:cal="0"/>
				<v:cp v:nameU="CPU" v:lbl="CPU" v:prompt="" v:type="0" v:format="" v:sortKey="Workstation" v:invis="false"
						v:ask="false" v:langID="1033" v:cal="0"/>
				<v:cp v:nameU="Memory" v:lbl="Memory" v:prompt="" v:type="0" v:format="" v:sortKey="Workstation" v:invis="false"
						v:ask="false" v:langID="1033" v:cal="0"/>
				<v:cp v:nameU="OperatingSystem" v:lbl="Operating System" v:prompt="" v:type="0" v:format="" v:sortKey="Workstation"
						v:invis="false" v:ask="false" v:langID="1033" v:cal="0"/>
				<v:cp v:nameU="HardDriveSize" v:lbl="Hard Drive Capacity" v:prompt="" v:type="0" v:format=""
						v:sortKey="Workstation" v:invis="false" v:ask="false" v:langID="1033" v:cal="0"/>
				<v:cp v:nameU="Department" v:lbl="Department" v:prompt="" v:type="0" v:format="" v:sortKey="" v:invis="false"
						v:ask="false" v:langID="1033" v:cal="0"/>
				<v:cp v:nameU="ShapeClass" v:lbl="ShapeClass" v:prompt="" v:type="0" v:format="" v:sortKey="" v:invis="true"
						v:ask="false" v:langID="1033" v:cal="0" v:val="VT4(Equipment)"/>
				<v:cp v:nameU="ShapeType" v:lbl="ShapeType" v:prompt="" v:type="0" v:format="" v:sortKey="" v:invis="true"
						v:ask="false" v:langID="1033" v:cal="0" v:val="VT4(Computer)"/>
				<v:cp v:nameU="SubShapeType" v:lbl="SubShapeType" v:prompt="" v:type="0" v:format="" v:sortKey="" v:invis="true"
						v:ask="false" v:langID="1033" v:cal="0" v:val="VT4(Desktop)"/>
				<v:cp v:nameU="BelongsTo" v:lbl="Belongs To" v:prompt="" v:type="0" v:format="" v:sortKey="" v:invis="true"
						v:ask="false" v:langID="1033" v:cal="0"/>
			</v:custProps>
			<v:userDefs>
				<v:ud v:nameU="visVersion" v:prompt="" v:val="VT0(15):26"/>
				<v:ud v:nameU="ShapeClass" v:prompt="" v:val="VT0(5):26"/>
				<v:ud v:nameU="SolSH" v:prompt="" v:val="VT15({BF0433D9-CD73-4EB5-8390-8653BE590246}):41"/>
				<v:ud v:nameU="visLegendShape" v:prompt="" v:val="VT0(2):26"/>
			</v:userDefs>
			<title>PC</title>
			<g id="shape2-2" v:mID="2" v:groupContext="shape" transform="translate(0,-3.60134)">
				<title>Sheet.2</title>
				<path d="M36.58 778.74 L36.58 783.3 L39.34 783.3 L41.94 786.56 L54 786.56 L54 745.2 L36.58 745.2 L36.58 751.14 L44.05
							 751.14 L44.05 778.74 L36.58 778.74 ZM44.05 751.14 L2.69 751.14 L2.69 778.74 L44.05 778.74 L44.05 751.14
							 ZM46.28 792 L39.34 783.3 L6.94 783.3 L0 792 L46.28 792 ZM26.78 778.74 L19.5 778.74 L19.5 783.3 L26.78
							 783.3 L26.78 778.74 Z" class="st1"/>
			</g>
			<g id="shape3-4" v:mID="3" v:groupContext="shape" transform="translate(5.37425,-19.3495)">
				<title>Sheet.3</title>
				<v:userDefs>
					<v:ud v:nameU="SurroundingRegionColor" v:prompt="" v:val="VT5(1)"/>
				</v:userDefs>
				<path d="M36.05 769.62 L0 769.62 L0 792 L36.05 792 L36.05 769.62 Z" class="st1"/>
			</g>
			<g id="shape4-6" v:mID="4" v:groupContext="shape" transform="translate(6.29814,-5.39773)">
				<title>Sheet.4</title>
				<v:userDefs>
					<v:ud v:nameU="SurroundingRegionColor" v:prompt="" v:val="VT5(1)"/>
				</v:userDefs>
				<path d="M40.73 751.63 L44.46 751.63 L44.46 750.18 L40.73 750.18 L40.73 751.63 ZM40.73 754.22 L44.46 754.22 L44.46
							 752.77 L40.73 752.77 L40.73 754.22 ZM31.6 788.62 L29.55 788.62 L30.7 789.9 L32.91 789.9 L31.6 788.62
							 ZM29.28 786.35 L27.5 786.35 L28.74 787.73 L30.69 787.73 L29.28 786.35 ZM28.44 788.62 L26.38 788.62 L27.29
							 789.9 L29.5 789.9 L28.44 788.62 ZM26.55 786.35 L24.78 786.35 L25.75 787.73 L27.7 787.73 L26.55 786.35
							 ZM25.27 788.62 L23.22 788.62 L23.87 789.9 L26.09 789.9 L25.27 788.62 ZM23.83 786.35 L22.06 786.35 L22.77
							 787.76 L24.72 787.76 L23.83 786.35 ZM22.11 788.62 L20.05 788.62 L20.46 789.9 L22.68 789.9 L22.11 788.62
							 ZM21.14 786.45 L19.36 786.45 L19.78 787.76 L21.73 787.76 L21.14 786.45 ZM18.95 788.62 L16.89 788.62
							 L17.05 789.9 L19.27 789.9 L18.95 788.62 ZM18.43 786.56 L16.63 786.56 L16.79 787.84 L18.75 787.84 L18.43
							 786.56 ZM15.66 786.56 L13.86 786.56 L13.78 787.84 L15.74 787.84 L15.66 786.56 ZM15.78 788.62 L13.73
							 788.62 L13.64 789.9 L15.86 789.9 L15.78 788.62 ZM12.9 786.56 L11.1 786.56 L10.77 787.84 L12.73 787.84
							 L12.9 786.56 ZM12.62 788.62 L10.56 788.62 L10.23 789.9 L12.45 789.9 L12.62 788.62 ZM23.9 790.72 L9.39
							 790.72 L9.01 792 L24.53 792 L23.9 790.72 ZM10.13 786.56 L8.33 786.56 L7.76 787.84 L9.71 787.84 L10.13
							 786.56 ZM9.46 788.62 L7.4 788.62 L6.82 789.9 L9.04 789.9 L9.46 788.62 ZM7.37 786.56 L5.57 786.56 L4.74
							 787.84 L6.7 787.84 L7.37 786.56 ZM6.29 788.62 L4.24 788.62 L3.41 789.9 L5.63 789.9 L6.29 788.62 ZM4.6
							 786.56 L2.8 786.56 L1.73 787.84 L3.69 787.84 L4.6 786.56 ZM3.13 788.62 L1.07 788.62 L0 789.9 L2.22 789.9
							 L3.13 788.62 Z" class="st2"/>
			</g>
		</g>
		<g id="shape35-9" v:mID="35" v:groupContext="shape" transform="translate(194.625,-250.875)">
			<title>Database</title>
			<v:userDefs>
				<v:ud v:nameU="msvShapeCategories" v:prompt="" v:val="VT4(Icon)"/>
				<v:ud v:nameU="visVersion" v:prompt="" v:val="VT0(15):26"/>
			</v:userDefs>
			<path d="M-0.02 754.79 A15.9174 8.57174 179.39 1 1 31.81 754.45 A15.9174 8.57174 179.39 1 1 -0.02 754.79" class="st3"/>
			<path d="M31.79 754.91 L31.79 782.36 A15.142 8.93731 0 0 1 15.87 791.76 A15.0942 8.90911 0 0 1 -0 782.36 L0 754.91"
					class="st3"/>
		</g>
		<g id="shape36-13" v:mID="36" v:groupContext="shape" transform="translate(180,-342.281)">
			<title>Hard drive</title>
			<v:userDefs>
				<v:ud v:nameU="msvShapeCategories" v:prompt="" v:val="VT4(Icon)"/>
				<v:ud v:nameU="visVersion" v:prompt="" v:val="VT0(15):26"/>
			</v:userDefs>
			<path d="M33.75 783.56 L33.75 785.25 L6.75 785.25 L6.75 783.56 L33.75 783.56 ZM33.75 778.5 L33.75 780.19 L6.75 780.19
						 L6.75 778.5 L33.75 778.5 ZM47.25 780.19 L47.25 785.25 L42.19 785.25 L42.19 780.19 L47.25 780.19 ZM50.63
						 788.62 L50.63 775.12 L3.37 775.12 L3.38 788.62 L50.63 788.62 ZM13.46 759.94 C12.12 761.67 6.6 768.76 4.28
						 771.75 L49.72 771.75 C47.4 768.76 41.88 761.67 40.54 759.94 L13.46 759.94 ZM52.96 770.42 C53.53 771.15 54
						 772.51 54 773.44 L54 790.31 C54 791.24 53.24 792 52.31 792 L1.69 792 C0.76 792 -0 791.24 0 790.31 L0 773.44
						 C-0 772.51 0.47 771.15 1.04 770.42 L10.78 757.9 C11.35 757.16 12.57 756.56 13.5 756.56 L40.5 756.56 C41.43
						 756.56 42.65 757.16 43.22 757.9 L52.96 770.42 Z" class="st4"/>
		</g>
		<g id="shape38-15" v:mID="38" v:groupContext="shape" transform="translate(301.5,-263.25)">
			<title>Cloud</title>
			<v:userDefs>
				<v:ud v:nameU="visVersion" v:val="VT0(15):26"/>
			</v:userDefs>
			<path d="M5.65 705.19 A10.8141 10.7466 0 0 1 9.34 685.43 A14.6981 14.6064 0 0 1 23.26 663.28 A16.8772 16.7718 0 0 1 47.13
						 644.3 A11.5179 11.446 0 0 1 67.91 634.46 A12.6478 12.5688 0 0 1 90.14 627.91 A24.9888 24.8328 0 0 1 124.88
						 623.78 A7.46572 7.41912 0 0 1 139.48 624.01 A8.16205 7.01068 25.64 0 1 154.96 623.73 A7.57517 4.99614 8.16
						 0 1 168.29 627.91 A14.1251 9.31642 11.45 0 1 195.42 634.51 A8.50349 5.63063 143.77 0 1 205.08 640.89 A14.3472
						 14.2576 0 0 1 228.07 656.31 A15.8492 10.456 10.26 0 1 237.34 669.55 A20.2803 13.3701 177.49 0 1 251.05 691.61
						 A11.723 7.72821 0 0 1 252.78 705.19 A5.85096 5.81443 0 1 1 251.83 715.29 A12.5891 12.5105 0 0 1 243.58 736.03
						 A8.30622 6.54626 178.27 1 1 235.17 747.1 A16.8772 16.7718 0 0 1 211.31 766.07 A13.1966 8.69967 0 0 1 190.52
						 775.91 A10.4918 10.4264 0 0 1 170.41 781.55 A10.9435 8.31434 5.89 0 1 149.53 785.54 A10.3469 6.82101 0 0
						 1 129.22 786.64 A13.234 8.72429 0 0 1 104.02 784.93 A12.0481 7.95035 11.94 0 1 82.88 776.46 A10.4534 5.93386
						 9.71 1 1 64.27 770.28 A12.3754 12.2981 0 0 1 46.84 756.1 A16.8909 16.7854 0 0 1 26.25 756.1 A29.6591 19.5598
						 7.39 0 1 14.85 736.03 A11.6841 11.6111 0 0 1 4.16 715.97 A11.4829 7.57423 11.68 0 1 5.65 705.19 Z"
					class="st5"/>
		</g>
		<g id="group40-17" transform="translate(25.5,-331.5)" v:mID="40" v:groupContext="group">
			<v:custProps>
				<v:cp v:nameU="AssetNumber" v:lbl="Asset Number" v:prompt="" v:type="0" v:format="" v:sortKey="Asset"
						v:invis="false" v:ask="false" v:langID="1033" v:cal="0"/>
				<v:cp v:nameU="SerialNumber" v:lbl="Serial Number" v:prompt="" v:type="0" v:format="" v:sortKey="Asset"
						v:invis="false" v:ask="false" v:langID="1033" v:cal="0"/>
				<v:cp v:nameU="Location" v:lbl="Location" v:prompt="" v:type="0" v:format="" v:sortKey="Asset" v:invis="false"
						v:ask="false" v:langID="1033" v:cal="0"/>
				<v:cp v:nameU="Building" v:lbl="Building" v:prompt="" v:type="0" v:format="" v:sortKey="Asset" v:invis="false"
						v:ask="false" v:langID="1033" v:cal="0"/>
				<v:cp v:nameU="Room" v:lbl="Room" v:prompt="" v:type="0" v:format="" v:sortKey="Asset" v:invis="false"
						v:ask="false" v:langID="1033" v:cal="0"/>
				<v:cp v:nameU="Manufacturer" v:lbl="Manufacturer" v:prompt="" v:type="0" v:format="" v:sortKey="Equipment"
						v:invis="false" v:ask="false" v:langID="1033" v:cal="0"/>
				<v:cp v:nameU="ProductNumber" v:lbl="Product Number" v:prompt="" v:type="0" v:format="" v:sortKey="Equipment"
						v:invis="false" v:ask="false" v:langID="1033" v:cal="0"/>
				<v:cp v:nameU="PartNumber" v:lbl="Part Number" v:prompt="" v:type="0" v:format="" v:sortKey="Equipment"
						v:invis="false" v:ask="false" v:langID="1033" v:cal="0"/>
				<v:cp v:nameU="ProductDescription" v:lbl="Product Description" v:prompt="" v:type="0" v:format=""
						v:sortKey="Equipment" v:invis="false" v:ask="false" v:langID="1033" v:cal="0"/>
				<v:cp v:nameU="NetworkName" v:lbl="Network Name" v:prompt="" v:type="0" v:format="" v:sortKey="Network"
						v:invis="false" v:ask="false" v:langID="1033" v:cal="0"/>
				<v:cp v:nameU="IPAddress" v:lbl="IP Address" v:prompt="" v:type="0" v:format="" v:sortKey="Network" v:invis="false"
						v:ask="false" v:langID="1033" v:cal="0"/>
				<v:cp v:nameU="SubnetMask" v:lbl="Subnet Mask" v:prompt="" v:type="0" v:format="" v:sortKey="Network"
						v:invis="false" v:ask="false" v:langID="1033" v:cal="0"/>
				<v:cp v:nameU="AdminInterface" v:lbl="Administrative Interface" v:prompt="" v:type="0" v:format=""
						v:sortKey="Network" v:invis="false" v:ask="false" v:langID="1033" v:cal="0"/>
				<v:cp v:nameU="NumberofPorts" v:lbl="Number of Ports" v:prompt="" v:type="0" v:format="" v:sortKey="Network"
						v:invis="false" v:ask="false" v:langID="1033" v:cal="0"/>
				<v:cp v:nameU="CommunityString" v:lbl="Community String" v:prompt="" v:type="0" v:format="" v:sortKey="Network"
						v:invis="false" v:ask="false" v:langID="1033" v:cal="0"/>
				<v:cp v:nameU="NetworkDescription" v:lbl="Network Description" v:prompt="" v:type="0" v:format=""
						v:sortKey="Network" v:invis="false" v:ask="false" v:langID="1033" v:cal="0"/>
				<v:cp v:nameU="MACAddress" v:lbl="MAC Address" v:prompt="" v:type="0" v:format="" v:sortKey="Network"
						v:invis="false" v:ask="false" v:langID="1033" v:cal="0"/>
				<v:cp v:nameU="CPU" v:lbl="CPU" v:prompt="" v:type="0" v:format="" v:sortKey="Workstation" v:invis="false"
						v:ask="false" v:langID="1033" v:cal="0"/>
				<v:cp v:nameU="Memory" v:lbl="Memory" v:prompt="" v:type="0" v:format="" v:sortKey="Workstation" v:invis="false"
						v:ask="false" v:langID="1033" v:cal="0"/>
				<v:cp v:nameU="OperatingSystem" v:lbl="Operating System" v:prompt="" v:type="0" v:format="" v:sortKey="Workstation"
						v:invis="false" v:ask="false" v:langID="1033" v:cal="0"/>
				<v:cp v:nameU="HardDriveSize" v:lbl="Hard Drive Capacity" v:prompt="" v:type="0" v:format=""
						v:sortKey="Workstation" v:invis="false" v:ask="false" v:langID="1033" v:cal="0"/>
				<v:cp v:nameU="Department" v:lbl="Department" v:prompt="" v:type="0" v:format="" v:sortKey="" v:invis="false"
						v:ask="false" v:langID="1033" v:cal="0"/>
				<v:cp v:nameU="ShapeClass" v:lbl="ShapeClass" v:prompt="" v:type="0" v:format="" v:sortKey="" v:invis="true"
						v:ask="false" v:langID="1033" v:cal="0" v:val="VT4(Equipment)"/>
				<v:cp v:nameU="ShapeType" v:lbl="ShapeType" v:prompt="" v:type="0" v:format="" v:sortKey="" v:invis="true"
						v:ask="false" v:langID="1033" v:cal="0" v:val="VT4(Computer)"/>
				<v:cp v:nameU="SubShapeType" v:lbl="SubShapeType" v:prompt="" v:type="0" v:format="" v:sortKey="" v:invis="true"
						v:ask="false" v:langID="1033" v:cal="0" v:val="VT4(Desktop)"/>
				<v:cp v:nameU="BelongsTo" v:lbl="Belongs To" v:prompt="" v:type="0" v:format="" v:sortKey="" v:invis="true"
						v:ask="false" v:langID="1033" v:cal="0"/>
			</v:custProps>
			<v:userDefs>
				<v:ud v:nameU="visVersion" v:prompt="" v:val="VT0(15):26"/>
				<v:ud v:nameU="ShapeClass" v:prompt="" v:val="VT0(5):26"/>
				<v:ud v:nameU="SolSH" v:prompt="" v:val="VT15({BF0433D9-CD73-4EB5-8390-8653BE590246}):41"/>
				<v:ud v:nameU="visLegendShape" v:prompt="" v:val="VT0(2):26"/>
			</v:userDefs>
			<title>PC.40</title>
			<g id="shape41-18" v:mID="41" v:groupContext="shape" transform="translate(0,-3.60134)">
				<title>Sheet.41</title>
				<path d="M36.58 778.74 L36.58 783.3 L39.34 783.3 L41.94 786.56 L54 786.56 L54 745.2 L36.58 745.2 L36.58 751.14 L44.05
							 751.14 L44.05 778.74 L36.58 778.74 ZM44.05 751.14 L2.69 751.14 L2.69 778.74 L44.05 778.74 L44.05 751.14
							 ZM46.28 792 L39.34 783.3 L6.94 783.3 L0 792 L46.28 792 ZM26.78 778.74 L19.5 778.74 L19.5 783.3 L26.78
							 783.3 L26.78 778.74 Z" class="st1"/>
			</g>
			<g id="shape42-20" v:mID="42" v:groupContext="shape" transform="translate(5.37425,-19.3495)">
				<title>Sheet.42</title>
				<v:userDefs>
					<v:ud v:nameU="SurroundingRegionColor" v:prompt="" v:val="VT5(1)"/>
				</v:userDefs>
				<path d="M36.05 769.62 L0 769.62 L0 792 L36.05 792 L36.05 769.62 Z" class="st1"/>
			</g>
			<g id="shape43-22" v:mID="43" v:groupContext="shape" transform="translate(6.29814,-5.39773)">
				<title>Sheet.43</title>
				<v:userDefs>
					<v:ud v:nameU="SurroundingRegionColor" v:prompt="" v:val="VT5(1)"/>
				</v:userDefs>
				<path d="M40.73 751.63 L44.46 751.63 L44.46 750.18 L40.73 750.18 L40.73 751.63 ZM40.73 754.22 L44.46 754.22 L44.46
							 752.77 L40.73 752.77 L40.73 754.22 ZM31.6 788.62 L29.55 788.62 L30.7 789.9 L32.91 789.9 L31.6 788.62
							 ZM29.28 786.35 L27.5 786.35 L28.74 787.73 L30.69 787.73 L29.28 786.35 ZM28.44 788.62 L26.38 788.62 L27.29
							 789.9 L29.5 789.9 L28.44 788.62 ZM26.55 786.35 L24.78 786.35 L25.75 787.73 L27.7 787.73 L26.55 786.35
							 ZM25.27 788.62 L23.22 788.62 L23.87 789.9 L26.09 789.9 L25.27 788.62 ZM23.83 786.35 L22.06 786.35 L22.77
							 787.76 L24.72 787.76 L23.83 786.35 ZM22.11 788.62 L20.05 788.62 L20.46 789.9 L22.68 789.9 L22.11 788.62
							 ZM21.14 786.45 L19.36 786.45 L19.78 787.76 L21.73 787.76 L21.14 786.45 ZM18.95 788.62 L16.89 788.62
							 L17.05 789.9 L19.27 789.9 L18.95 788.62 ZM18.43 786.56 L16.63 786.56 L16.79 787.84 L18.75 787.84 L18.43
							 786.56 ZM15.66 786.56 L13.86 786.56 L13.78 787.84 L15.74 787.84 L15.66 786.56 ZM15.78 788.62 L13.73
							 788.62 L13.64 789.9 L15.86 789.9 L15.78 788.62 ZM12.9 786.56 L11.1 786.56 L10.77 787.84 L12.73 787.84
							 L12.9 786.56 ZM12.62 788.62 L10.56 788.62 L10.23 789.9 L12.45 789.9 L12.62 788.62 ZM23.9 790.72 L9.39
							 790.72 L9.01 792 L24.53 792 L23.9 790.72 ZM10.13 786.56 L8.33 786.56 L7.76 787.84 L9.71 787.84 L10.13
							 786.56 ZM9.46 788.62 L7.4 788.62 L6.82 789.9 L9.04 789.9 L9.46 788.62 ZM7.37 786.56 L5.57 786.56 L4.74
							 787.84 L6.7 787.84 L7.37 786.56 ZM6.29 788.62 L4.24 788.62 L3.41 789.9 L5.63 789.9 L6.29 788.62 ZM4.6
							 786.56 L2.8 786.56 L1.73 787.84 L3.69 787.84 L4.6 786.56 ZM3.13 788.62 L1.07 788.62 L0 789.9 L2.22 789.9
							 L3.13 788.62 Z" class="st2"/>
			</g>
		</g>
		<g id="group44-25" transform="translate(64.125,-228)" v:mID="44" v:groupContext="group">
			<v:custProps>
				<v:cp v:nameU="AssetNumber" v:lbl="Asset Number" v:prompt="" v:type="0" v:format="" v:sortKey="Asset"
						v:invis="false" v:ask="false" v:langID="1033" v:cal="0"/>
				<v:cp v:nameU="SerialNumber" v:lbl="Serial Number" v:prompt="" v:type="0" v:format="" v:sortKey="Asset"
						v:invis="false" v:ask="false" v:langID="1033" v:cal="0"/>
				<v:cp v:nameU="Location" v:lbl="Location" v:prompt="" v:type="0" v:format="" v:sortKey="Asset" v:invis="false"
						v:ask="false" v:langID="1033" v:cal="0"/>
				<v:cp v:nameU="Building" v:lbl="Building" v:prompt="" v:type="0" v:format="" v:sortKey="Asset" v:invis="false"
						v:ask="false" v:langID="1033" v:cal="0"/>
				<v:cp v:nameU="Room" v:lbl="Room" v:prompt="" v:type="0" v:format="" v:sortKey="Asset" v:invis="false"
						v:ask="false" v:langID="1033" v:cal="0"/>
				<v:cp v:nameU="Manufacturer" v:lbl="Manufacturer" v:prompt="" v:type="0" v:format="" v:sortKey="Equipment"
						v:invis="false" v:ask="false" v:langID="1033" v:cal="0"/>
				<v:cp v:nameU="ProductNumber" v:lbl="Product Number" v:prompt="" v:type="0" v:format="" v:sortKey="Equipment"
						v:invis="false" v:ask="false" v:langID="1033" v:cal="0"/>
				<v:cp v:nameU="PartNumber" v:lbl="Part Number" v:prompt="" v:type="0" v:format="" v:sortKey="Equipment"
						v:invis="false" v:ask="false" v:langID="1033" v:cal="0"/>
				<v:cp v:nameU="ProductDescription" v:lbl="Product Description" v:prompt="" v:type="0" v:format=""
						v:sortKey="Equipment" v:invis="false" v:ask="false" v:langID="1033" v:cal="0"/>
				<v:cp v:nameU="NetworkName" v:lbl="Network Name" v:prompt="" v:type="0" v:format="" v:sortKey="Network"
						v:invis="false" v:ask="false" v:langID="1033" v:cal="0"/>
				<v:cp v:nameU="IPAddress" v:lbl="IP Address" v:prompt="" v:type="0" v:format="" v:sortKey="Network" v:invis="false"
						v:ask="false" v:langID="1033" v:cal="0"/>
				<v:cp v:nameU="SubnetMask" v:lbl="Subnet Mask" v:prompt="" v:type="0" v:format="" v:sortKey="Network"
						v:invis="false" v:ask="false" v:langID="1033" v:cal="0"/>
				<v:cp v:nameU="AdminInterface" v:lbl="Administrative Interface" v:prompt="" v:type="0" v:format=""
						v:sortKey="Network" v:invis="false" v:ask="false" v:langID="1033" v:cal="0"/>
				<v:cp v:nameU="NumberofPorts" v:lbl="Number of Ports" v:prompt="" v:type="0" v:format="" v:sortKey="Network"
						v:invis="false" v:ask="false" v:langID="1033" v:cal="0"/>
				<v:cp v:nameU="CommunityString" v:lbl="Community String" v:prompt="" v:type="0" v:format="" v:sortKey="Network"
						v:invis="false" v:ask="false" v:langID="1033" v:cal="0"/>
				<v:cp v:nameU="NetworkDescription" v:lbl="Network Description" v:prompt="" v:type="0" v:format=""
						v:sortKey="Network" v:invis="false" v:ask="false" v:langID="1033" v:cal="0"/>
				<v:cp v:nameU="MACAddress" v:lbl="MAC Address" v:prompt="" v:type="0" v:format="" v:sortKey="Network"
						v:invis="false" v:ask="false" v:langID="1033" v:cal="0"/>
				<v:cp v:nameU="CPU" v:lbl="CPU" v:prompt="" v:type="0" v:format="" v:sortKey="Workstation" v:invis="false"
						v:ask="false" v:langID="1033" v:cal="0"/>
				<v:cp v:nameU="Memory" v:lbl="Memory" v:prompt="" v:type="0" v:format="" v:sortKey="Workstation" v:invis="false"
						v:ask="false" v:langID="1033" v:cal="0"/>
				<v:cp v:nameU="OperatingSystem" v:lbl="Operating System" v:prompt="" v:type="0" v:format="" v:sortKey="Workstation"
						v:invis="false" v:ask="false" v:langID="1033" v:cal="0"/>
				<v:cp v:nameU="HardDriveSize" v:lbl="Hard Drive Capacity" v:prompt="" v:type="0" v:format=""
						v:sortKey="Workstation" v:invis="false" v:ask="false" v:langID="1033" v:cal="0"/>
				<v:cp v:nameU="Department" v:lbl="Department" v:prompt="" v:type="0" v:format="" v:sortKey="" v:invis="false"
						v:ask="false" v:langID="1033" v:cal="0"/>
				<v:cp v:nameU="ShapeClass" v:lbl="ShapeClass" v:prompt="" v:type="0" v:format="" v:sortKey="" v:invis="true"
						v:ask="false" v:langID="1033" v:cal="0" v:val="VT4(Equipment)"/>
				<v:cp v:nameU="ShapeType" v:lbl="ShapeType" v:prompt="" v:type="0" v:format="" v:sortKey="" v:invis="true"
						v:ask="false" v:langID="1033" v:cal="0" v:val="VT4(Computer)"/>
				<v:cp v:nameU="SubShapeType" v:lbl="SubShapeType" v:prompt="" v:type="0" v:format="" v:sortKey="" v:invis="true"
						v:ask="false" v:langID="1033" v:cal="0" v:val="VT4(Desktop)"/>
				<v:cp v:nameU="BelongsTo" v:lbl="Belongs To" v:prompt="" v:type="0" v:format="" v:sortKey="" v:invis="true"
						v:ask="false" v:langID="1033" v:cal="0"/>
			</v:custProps>
			<v:userDefs>
				<v:ud v:nameU="visVersion" v:prompt="" v:val="VT0(15):26"/>
				<v:ud v:nameU="ShapeClass" v:prompt="" v:val="VT0(5):26"/>
				<v:ud v:nameU="SolSH" v:prompt="" v:val="VT15({BF0433D9-CD73-4EB5-8390-8653BE590246}):41"/>
				<v:ud v:nameU="visLegendShape" v:prompt="" v:val="VT0(2):26"/>
			</v:userDefs>
			<title>PC.44</title>
			<g id="shape45-26" v:mID="45" v:groupContext="shape" transform="translate(0,-3.60134)">
				<title>Sheet.45</title>
				<path d="M36.58 778.74 L36.58 783.3 L39.34 783.3 L41.94 786.56 L54 786.56 L54 745.2 L36.58 745.2 L36.58 751.14 L44.05
							 751.14 L44.05 778.74 L36.58 778.74 ZM44.05 751.14 L2.69 751.14 L2.69 778.74 L44.05 778.74 L44.05 751.14
							 ZM46.28 792 L39.34 783.3 L6.94 783.3 L0 792 L46.28 792 ZM26.78 778.74 L19.5 778.74 L19.5 783.3 L26.78
							 783.3 L26.78 778.74 Z" class="st1"/>
			</g>
			<g id="shape46-28" v:mID="46" v:groupContext="shape" transform="translate(5.37425,-19.3495)">
				<title>Sheet.46</title>
				<v:userDefs>
					<v:ud v:nameU="SurroundingRegionColor" v:prompt="" v:val="VT5(1)"/>
				</v:userDefs>
				<path d="M36.05 769.62 L0 769.62 L0 792 L36.05 792 L36.05 769.62 Z" class="st1"/>
			</g>
			<g id="shape47-30" v:mID="47" v:groupContext="shape" transform="translate(6.29814,-5.39773)">
				<title>Sheet.47</title>
				<v:userDefs>
					<v:ud v:nameU="SurroundingRegionColor" v:prompt="" v:val="VT5(1)"/>
				</v:userDefs>
				<path d="M40.73 751.63 L44.46 751.63 L44.46 750.18 L40.73 750.18 L40.73 751.63 ZM40.73 754.22 L44.46 754.22 L44.46
							 752.77 L40.73 752.77 L40.73 754.22 ZM31.6 788.62 L29.55 788.62 L30.7 789.9 L32.91 789.9 L31.6 788.62
							 ZM29.28 786.35 L27.5 786.35 L28.74 787.73 L30.69 787.73 L29.28 786.35 ZM28.44 788.62 L26.38 788.62 L27.29
							 789.9 L29.5 789.9 L28.44 788.62 ZM26.55 786.35 L24.78 786.35 L25.75 787.73 L27.7 787.73 L26.55 786.35
							 ZM25.27 788.62 L23.22 788.62 L23.87 789.9 L26.09 789.9 L25.27 788.62 ZM23.83 786.35 L22.06 786.35 L22.77
							 787.76 L24.72 787.76 L23.83 786.35 ZM22.11 788.62 L20.05 788.62 L20.46 789.9 L22.68 789.9 L22.11 788.62
							 ZM21.14 786.45 L19.36 786.45 L19.78 787.76 L21.73 787.76 L21.14 786.45 ZM18.95 788.62 L16.89 788.62
							 L17.05 789.9 L19.27 789.9 L18.95 788.62 ZM18.43 786.56 L16.63 786.56 L16.79 787.84 L18.75 787.84 L18.43
							 786.56 ZM15.66 786.56 L13.86 786.56 L13.78 787.84 L15.74 787.84 L15.66 786.56 ZM15.78 788.62 L13.73
							 788.62 L13.64 789.9 L15.86 789.9 L15.78 788.62 ZM12.9 786.56 L11.1 786.56 L10.77 787.84 L12.73 787.84
							 L12.9 786.56 ZM12.62 788.62 L10.56 788.62 L10.23 789.9 L12.45 789.9 L12.62 788.62 ZM23.9 790.72 L9.39
							 790.72 L9.01 792 L24.53 792 L23.9 790.72 ZM10.13 786.56 L8.33 786.56 L7.76 787.84 L9.71 787.84 L10.13
							 786.56 ZM9.46 788.62 L7.4 788.62 L6.82 789.9 L9.04 789.9 L9.46 788.62 ZM7.37 786.56 L5.57 786.56 L4.74
							 787.84 L6.7 787.84 L7.37 786.56 ZM6.29 788.62 L4.24 788.62 L3.41 789.9 L5.63 789.9 L6.29 788.62 ZM4.6
							 786.56 L2.8 786.56 L1.73 787.84 L3.69 787.84 L4.6 786.56 ZM3.13 788.62 L1.07 788.62 L0 789.9 L2.22 789.9
							 L3.13 788.62 Z" class="st2"/>
			</g>
		</g>
		<g id="shape48-33" v:mID="48" v:groupContext="shape" transform="translate(357.75,-375)">
			<title>Hard drive.48</title>
			<v:userDefs>
				<v:ud v:nameU="msvShapeCategories" v:prompt="" v:val="VT4(Icon)"/>
				<v:ud v:nameU="visVersion" v:prompt="" v:val="VT0(15):26"/>
			</v:userDefs>
			<path d="M33.75 783.56 L33.75 785.25 L6.75 785.25 L6.75 783.56 L33.75 783.56 ZM33.75 778.5 L33.75 780.19 L6.75 780.19
						 L6.75 778.5 L33.75 778.5 ZM47.25 780.19 L47.25 785.25 L42.19 785.25 L42.19 780.19 L47.25 780.19 ZM50.63
						 788.62 L50.63 775.12 L3.37 775.12 L3.38 788.62 L50.63 788.62 ZM13.46 759.94 C12.12 761.67 6.6 768.76 4.28
						 771.75 L49.72 771.75 C47.4 768.76 41.88 761.67 40.54 759.94 L13.46 759.94 ZM52.96 770.42 C53.53 771.15 54
						 772.51 54 773.44 L54 790.31 C54 791.24 53.24 792 52.31 792 L1.69 792 C0.76 792 -0 791.24 0 790.31 L0 773.44
						 C-0 772.51 0.47 771.15 1.04 770.42 L10.78 757.9 C11.35 757.16 12.57 756.56 13.5 756.56 L40.5 756.56 C41.43
						 756.56 42.65 757.16 43.22 757.9 L52.96 770.42 Z" class="st4"/>
		</g>
		<g id="shape49-35" v:mID="49" v:groupContext="shape" transform="translate(351,-307.5)">
			<title>Hard drive.49</title>
			<v:userDefs>
				<v:ud v:nameU="msvShapeCategories" v:prompt="" v:val="VT4(Icon)"/>
				<v:ud v:nameU="visVersion" v:prompt="" v:val="VT0(15):26"/>
			</v:userDefs>
			<path d="M33.75 783.56 L33.75 785.25 L6.75 785.25 L6.75 783.56 L33.75 783.56 ZM33.75 778.5 L33.75 780.19 L6.75 780.19
						 L6.75 778.5 L33.75 778.5 ZM47.25 780.19 L47.25 785.25 L42.19 785.25 L42.19 780.19 L47.25 780.19 ZM50.63
						 788.62 L50.63 775.12 L3.37 775.12 L3.38 788.62 L50.63 788.62 ZM13.46 759.94 C12.12 761.67 6.6 768.76 4.28
						 771.75 L49.72 771.75 C47.4 768.76 41.88 761.67 40.54 759.94 L13.46 759.94 ZM52.96 770.42 C53.53 771.15 54
						 772.51 54 773.44 L54 790.31 C54 791.24 53.24 792 52.31 792 L1.69 792 C0.76 792 -0 791.24 0 790.31 L0 773.44
						 C-0 772.51 0.47 771.15 1.04 770.42 L10.78 757.9 C11.35 757.16 12.57 756.56 13.5 756.56 L40.5 756.56 C41.43
						 756.56 42.65 757.16 43.22 757.9 L52.96 770.42 Z" class="st4"/>
		</g>
		<g id="shape50-37" v:mID="50" v:groupContext="shape" transform="translate(427.5,-360)">
			<title>Hard drive.50</title>
			<v:userDefs>
				<v:ud v:nameU="msvShapeCategories" v:prompt="" v:val="VT4(Icon)"/>
				<v:ud v:nameU="visVersion" v:prompt="" v:val="VT0(15):26"/>
			</v:userDefs>
			<path d="M33.75 783.56 L33.75 785.25 L6.75 785.25 L6.75 783.56 L33.75 783.56 ZM33.75 778.5 L33.75 780.19 L6.75 780.19
						 L6.75 778.5 L33.75 778.5 ZM47.25 780.19 L47.25 785.25 L42.19 785.25 L42.19 780.19 L47.25 780.19 ZM50.63
						 788.62 L50.63 775.12 L3.37 775.12 L3.38 788.62 L50.63 788.62 ZM13.46 759.94 C12.12 761.67 6.6 768.76 4.28
						 771.75 L49.72 771.75 C47.4 768.76 41.88 761.67 40.54 759.94 L13.46 759.94 ZM52.96 770.42 C53.53 771.15 54
						 772.51 54 773.44 L54 790.31 C54 791.24 53.24 792 52.31 792 L1.69 792 C0.76 792 -0 791.24 0 790.31 L0 773.44
						 C-0 772.51 0.47 771.15 1.04 770.42 L10.78 757.9 C11.35 757.16 12.57 756.56 13.5 756.56 L40.5 756.56 C41.43
						 756.56 42.65 757.16 43.22 757.9 L52.96 770.42 Z" class="st4"/>
		</g>
		<g id="shape53-39" v:mID="53" v:groupContext="shape" transform="translate(659.404,-230.259) rotate(45)">
			<title>Sheet.53</title>
			<desc>Request</desc>
			<v:textBlock v:margins="rect(4,4,4,4)"/>
			<v:textRect cx="76" cy="782" width="152" height="20"/>
			<rect x="0" y="772" width="152" height="20" class="st6"/>
			<text x="56.11" y="785.6" class="st7" v:langID="1033"><v:paragraph v:horizAlign="1"/><v:tabList/>Request</text>		</g>
		<g id="shape59-42" v:mID="59" v:groupContext="shape" v:layerMember="0" transform="translate(118.688,-442.125)">
			<title>Message</title>
			<v:userDefs>
				<v:ud v:nameU="IsReturn" v:prompt="" v:val="VT0(0):5"/>
				<v:ud v:nameU="IsAsync" v:prompt="" v:val="VT0(0):26"/>
				<v:ud v:nameU="IsSelfMessage" v:prompt="" v:val="VT0(0):5"/>
				<v:ud v:nameU="visVersion" v:prompt="" v:val="VT0(15):26"/>
			</v:userDefs>
			<path d="M0 792 L59 849.97" class="st8"/>
		</g>
		<g id="shape62-48" v:mID="62" v:groupContext="shape" transform="translate(-466.386,-27.1536) rotate(-45)">
			<title>Sheet.62</title>
			<desc>Request</desc>
			<v:textBlock v:margins="rect(4,4,4,4)"/>
			<v:textRect cx="76" cy="782" width="152" height="20"/>
			<rect x="0" y="772" width="152" height="20" class="st6"/>
			<text x="56.11" y="785.6" class="st7" v:langID="1033"><v:paragraph v:horizAlign="1"/><v:tabList/>Request</text>		</g>
		<g id="shape64-51" v:mID="64" v:groupContext="shape" v:layerMember="0" transform="translate(116.819,-286.179)">
			<title>Message.64</title>
			<v:userDefs>
				<v:ud v:nameU="IsReturn" v:prompt="" v:val="VT0(0):5"/>
				<v:ud v:nameU="IsAsync" v:prompt="" v:val="VT0(0):26"/>
				<v:ud v:nameU="IsSelfMessage" v:prompt="" v:val="VT0(0):5"/>
				<v:ud v:nameU="visVersion" v:prompt="" v:val="VT0(15):26"/>
			</v:userDefs>
			<path d="M0 792 L56.52 737.18" class="st8"/>
		</g>
		<g id="shape69-56" v:mID="69" v:groupContext="shape" transform="translate(54.9315,-359.027)">
			<title>Sheet.69</title>
			<desc>Request</desc>
			<v:textBlock v:margins="rect(4,4,4,4)"/>
			<v:textRect cx="76" cy="782" width="152" height="20"/>
			<rect x="0" y="772" width="152" height="20" class="st6"/>
			<text x="56.11" y="785.6" class="st7" v:langID="1033"><v:paragraph v:horizAlign="1"/><v:tabList/>Request</text>		</g>
		<g id="shape70-59" v:mID="70" v:groupContext="shape" v:layerMember="0" transform="translate(87.1875,-369.608)">
			<title>Message.70</title>
			<v:userDefs>
				<v:ud v:nameU="IsReturn" v:prompt="" v:val="VT0(0):5"/>
				<v:ud v:nameU="IsAsync" v:prompt="" v:val="VT0(0):26"/>
				<v:ud v:nameU="IsSelfMessage" v:prompt="" v:val="VT0(0):5"/>
				<v:ud v:nameU="visVersion" v:prompt="" v:val="VT0(15):26"/>
			</v:userDefs>
			<path d="M0 800.48 L81.81 801.43" class="st8"/>
		</g>
		<g id="shape84-64" v:mID="84" v:groupContext="shape" transform="translate(237.037,1236.94) rotate(-178.755)">
			<title>Curved  arrow</title>
			<v:userDefs>
				<v:ud v:nameU="Arrow" v:val="VT0(2):26"/>
				<v:ud v:nameU="visVersion" v:val="VT0(15):26"/>
			</v:userDefs>
			<path d="M17.25 792 L10.35 781.65 L6.9 785.1 L17.25 792 ZM17.25 722.98 L10.35 733.34 L6.9 729.89 L17.25 722.98 Z"
					class="st2"/>
			<path d="M17.25 792 L10.35 781.65 L6.9 785.1 L17.25 792" class="st10"/>
			<path d="M17.25 722.98 L10.35 733.34 L6.9 729.89 L17.25 722.98" class="st10"/>
			<path d="M17.25 722.98 A43.1352 43.1352 -180 0 0 17.25 792" class="st10"/>
		</g>
		<g id="shape85-69" v:mID="85" v:groupContext="shape" v:layerMember="0" transform="translate(237.375,-357.188)">
			<title>Message.85</title>
			<v:userDefs>
				<v:ud v:nameU="IsReturn" v:prompt="" v:val="VT0(0):5"/>
				<v:ud v:nameU="IsAsync" v:prompt="" v:val="VT0(0):26"/>
				<v:ud v:nameU="IsSelfMessage" v:prompt="" v:val="VT0(0):5"/>
				<v:ud v:nameU="visVersion" v:prompt="" v:val="VT0(15):26"/>
			</v:userDefs>
			<path d="M0 792 L107.48 771.38" class="st8"/>
		</g>
		<g id="shape86-74" v:mID="86" v:groupContext="shape" v:layerMember="0" transform="translate(238.5,-351)">
			<title>Message.86</title>
			<v:userDefs>
				<v:ud v:nameU="IsReturn" v:prompt="" v:val="VT0(0):5"/>
				<v:ud v:nameU="IsAsync" v:prompt="" v:val="VT0(0):26"/>
				<v:ud v:nameU="IsSelfMessage" v:prompt="" v:val="VT0(0):5"/>
				<v:ud v:nameU="visVersion" v:prompt="" v:val="VT0(15):26"/>
			</v:userDefs>
			<path d="M0 792 L99.12 816" class="st8"/>
		</g>
		<g id="shape87-79" v:mID="87" v:groupContext="shape" v:layerMember="0" transform="translate(239.625,-350.719)">
			<title>Message.87</title>
			<v:userDefs>
				<v:ud v:nameU="IsReturn" v:prompt="" v:val="VT0(0):5"/>
				<v:ud v:nameU="IsAsync" v:prompt="" v:val="VT0(0):26"/>
				<v:ud v:nameU="IsSelfMessage" v:prompt="" v:val="VT0(0):5"/>
				<v:ud v:nameU="visVersion" v:prompt="" v:val="VT0(15):26"/>
			</v:userDefs>
			<path d="M0 790.03 L172.04 776.59" class="st8"/>
		</g>
		<g id="shape88-84" v:mID="88" v:groupContext="shape" transform="translate(12.0667,-320.638) rotate(-15)">
			<title>Sheet.88</title>
			<desc>Request</desc>
			<v:textBlock v:margins="rect(4,4,4,4)"/>
			<v:textRect cx="76" cy="782" width="152" height="20"/>
			<rect x="0" y="772" width="152" height="20" class="st6"/>
			<text x="56.11" y="785.6" class="st7" v:langID="1033"><v:paragraph v:horizAlign="1"/><v:tabList/>Request</text>		</g>
		<g id="shape89-87" v:mID="89" v:groupContext="shape" transform="translate(252.75,-342.375)">
			<title>Sheet.89</title>
			<desc>Request</desc>
			<v:textBlock v:margins="rect(4,4,4,4)"/>
			<v:textRect cx="76" cy="782" width="152" height="20"/>
			<rect x="0" y="772" width="152" height="20" class="st6"/>
			<text x="56.11" y="785.6" class="st7" v:langID="1033"><v:paragraph v:horizAlign="1"/><v:tabList/>Request</text>		</g>
		<g id="shape90-90" v:mID="90" v:groupContext="shape" transform="translate(405.985,-317.229) rotate(15)">
			<title>Sheet.90</title>
			<desc>Request</desc>
			<v:textBlock v:margins="rect(4,4,4,4)"/>
			<v:textRect cx="76" cy="782" width="152" height="20"/>
			<rect x="0" y="772" width="152" height="20" class="st6"/>
			<text x="56.11" y="785.6" class="st7" v:langID="1033"><v:paragraph v:horizAlign="1"/><v:tabList/>Request</text>		</g>
		<g id="shape93-93" v:mID="93" v:groupContext="shape" transform="translate(174,-382.875)">
			<title>Sheet.93</title>
			<desc>WebCache</desc>
			<v:textBlock v:margins="rect(4,4,4,4)"/>
			<v:textRect cx="39.375" cy="790.594" width="78.75" height="2.8125"/>
			<rect x="0" y="789.188" width="78.75" height="2.8125" class="st6"/>
			<text x="13.15" y="794.19" class="st7" v:langID="1033"><v:paragraph v:horizAlign="1"/><v:tabList/>WebCache</text>		</g>
		<g id="shape95-96" v:mID="95" v:groupContext="shape" transform="translate(52.875,-499.5)">
			<title>Sheet.95</title>
			<desc>Client</desc>
			<v:textBlock v:margins="rect(4,4,4,4)"/>
			<v:textRect cx="39.375" cy="790.594" width="78.75" height="2.8125"/>
			<rect x="0" y="789.188" width="78.75" height="2.8125" class="st6"/>
			<text x="25.27" y="794.19" class="st7" v:langID="1033"><v:paragraph v:horizAlign="1"/><v:tabList/>Client</text>		</g>
		<g id="shape96-99" v:mID="96" v:groupContext="shape" transform="translate(356.063,-442.125)">
			<title>Sheet.96</title>
			<desc>Internet</desc>
			<v:textBlock v:margins="rect(4,4,4,4)"/>
			<v:textRect cx="72.2813" cy="781.313" width="144.57" height="21.375"/>
			<rect x="0" y="770.625" width="144.563" height="21.375" class="st6"/>
			<text x="32.48" y="788.51" class="st11" v:langID="1033"><v:paragraph v:horizAlign="1"/><v:tabList/>Internet</text>		</g>
		<g id="shape97-102" v:mID="97" v:groupContext="shape" transform="translate(9,-385.5)">
			<title>Sheet.97</title>
			<desc>Client</desc>
			<v:textBlock v:margins="rect(4,4,4,4)"/>
			<v:textRect cx="39.375" cy="790.594" width="78.75" height="2.8125"/>
			<rect x="0" y="789.188" width="78.75" height="2.8125" class="st6"/>
			<text x="25.27" y="794.19" class="st7" v:langID="1033"><v:paragraph v:horizAlign="1"/><v:tabList/>Client</text>		</g>
		<g id="shape98-105" v:mID="98" v:groupContext="shape" transform="translate(49.5,-285)">
			<title>Sheet.98</title>
			<desc>Client</desc>
			<v:textBlock v:margins="rect(4,4,4,4)"/>
			<v:textRect cx="39.375" cy="790.594" width="78.75" height="2.8125"/>
			<rect x="0" y="789.188" width="78.75" height="2.8125" class="st6"/>
			<text x="25.27" y="794.19" class="st7" v:langID="1033"><v:paragraph v:horizAlign="1"/><v:tabList/>Client</text>		</g>
	</g>
</svg>
