<?xml version="1.0" encoding="UTF-8" standalone="no"?>
<!DOCTYPE svg PUBLIC "-//W3C//DTD SVG 1.1//EN" "http://www.w3.org/Graphics/SVG/1.1/DTD/svg11.dtd">
<!-- Generated by Microsoft Visio, SVG Export a3.svg Page-1 -->
<svg xmlns="http://www.w3.org/2000/svg" xmlns:xlink="http://www.w3.org/1999/xlink" xmlns:ev="http://www.w3.org/2001/xml-events"
		xmlns:v="http://schemas.microsoft.com/visio/2003/SVGExtensions/" width="8.19438in" height="4.39036in"
		viewBox="0 0 589.995 316.106" xml:space="preserve" color-interpolation-filters="sRGB" class="st12">
	<v:documentProperties v:langID="1033" v:viewMarkup="false">
		<v:userDefs>
			<v:ud v:nameU="msvNoAutoConnect" v:val="VT0(1):26"/>
		</v:userDefs>
	</v:documentProperties>

	<style type="text/css">
	<![CDATA[
		.st1 {fill:#ffffff;stroke:#000000;stroke-linecap:round;stroke-linejoin:round;stroke-width:0.75}
		.st2 {fill:#000000}
		.st3 {stroke:#595959;stroke-linecap:round;stroke-linejoin:round;stroke-width:1}
		.st4 {fill:#595959;stroke:none;stroke-linecap:butt;stroke-width:0.75}
		.st5 {fill:#ffffff;stroke:#000000;stroke-linecap:round;stroke-linejoin:round;stroke-width:0.24}
		.st6 {fill:none;stroke:none;stroke-linecap:round;stroke-linejoin:round;stroke-width:0.75}
		.st7 {fill:#000000;font-family:Calibri;font-size:1.00001em}
		.st8 {marker-end:url(#mrkr4-47);stroke:#000000;stroke-linecap:round;stroke-linejoin:round;stroke-width:0.75}
		.st9 {fill:#000000;fill-opacity:1;stroke:#000000;stroke-opacity:1;stroke-width:0.18796992481203}
		.st10 {stroke:#000000;stroke-linecap:butt;stroke-width:0.24}
		.st11 {fill:#000000;font-family:Calibri;font-size:1.99999em}
		.st12 {fill:none;fill-rule:evenodd;font-size:12px;overflow:visible;stroke-linecap:square;stroke-miterlimit:3}
	]]>
	</style>

	<defs id="Markers">
		<g id="lend4">
			<path d="M 2 1 L 0 0 L 2 -1 L 2 1 " style="stroke:none"/>
		</g>
		<marker id="mrkr4-47" class="st9" v:arrowType="4" v:arrowSize="3" v:setback="10.64" refX="-10.64" orient="auto"
				markerUnits="strokeWidth" overflow="visible">
			<use xlink:href="#lend4" transform="scale(-5.32,-5.32) "/>
		</marker>
	</defs>
	<g v:mID="0" v:index="1" v:groupContext="foregroundPage">
		<title>Page-1</title>
		<v:pageProperties v:drawingScale="1" v:pageScale="1" v:drawingUnits="19" v:shadowOffsetX="9" v:shadowOffsetY="-9"/>
		<v:layer v:name="Connector" v:index="0"/>
		<v:layer v:name="Flow Segment" v:index="1"/>
		<g id="group1-1" transform="translate(76.875,-231)" v:mID="1" v:groupContext="group">
			<v:custProps>
				<v:cp v:nameU="AssetNumber" v:lbl="Asset Number" v:prompt="" v:type="0" v:format="" v:sortKey="Asset"
						v:invis="false" v:ask="false" v:langID="1033" v:cal="0"/>
				<v:cp v:nameU="SerialNumber" v:lbl="Serial Number" v:prompt="" v:type="0" v:format="" v:sortKey="Asset"
						v:invis="false" v:ask="false" v:langID="1033" v:cal="0"/>
				<v:cp v:nameU="Location" v:lbl="Location" v:prompt="" v:type="0" v:format="" v:sortKey="Asset" v:invis="false"
						v:ask="false" v:langID="1033" v:cal="0"/>
				<v:cp v:nameU="Building" v:lbl="Building" v:prompt="" v:type="0" v:format="" v:sortKey="Asset" v:invis="false"
						v:ask="false" v:langID="1033" v:cal="0"/>
				<v:cp v:nameU="Room" v:lbl="Room" v:prompt="" v:type="0" v:format="" v:sortKey="Asset" v:invis="false"
						v:ask="false" v:langID="1033" v:cal="0"/>
				<v:cp v:nameU="Manufacturer" v:lbl="Manufacturer" v:prompt="" v:type="0" v:format="" v:sortKey="Equipment"
						v:invis="false" v:ask="false" v:langID="1033" v:cal="0"/>
				<v:cp v:nameU="ProductNumber" v:lbl="Product Number" v:prompt="" v:type="0" v:format="" v:sortKey="Equipment"
						v:invis="false" v:ask="false" v:langID="1033" v:cal="0"/>
				<v:cp v:nameU="PartNumber" v:lbl="Part Number" v:prompt="" v:type="0" v:format="" v:sortKey="Equipment"
						v:invis="false" v:ask="false" v:langID="1033" v:cal="0"/>
				<v:cp v:nameU="ProductDescription" v:lbl="Product Description" v:prompt="" v:type="0" v:format=""
						v:sortKey="Equipment" v:invis="false" v:ask="false" v:langID="1033" v:cal="0"/>
				<v:cp v:nameU="NetworkName" v:lbl="Network Name" v:prompt="" v:type="0" v:format="" v:sortKey="Network"
						v:invis="false" v:ask="false" v:langID="1033" v:cal="0"/>
				<v:cp v:nameU="IPAddress" v:lbl="IP Address" v:prompt="" v:type="0" v:format="" v:sortKey="Network" v:invis="false"
						v:ask="false" v:langID="1033" v:cal="0"/>
				<v:cp v:nameU="SubnetMask" v:lbl="Subnet Mask" v:prompt="" v:type="0" v:format="" v:sortKey="Network"
						v:invis="false" v:ask="false" v:langID="1033" v:cal="0"/>
				<v:cp v:nameU="AdminInterface" v:lbl="Administrative Interface" v:prompt="" v:type="0" v:format=""
						v:sortKey="Network" v:invis="false" v:ask="false" v:langID="1033" v:cal="0"/>
				<v:cp v:nameU="NumberofPorts" v:lbl="Number of Ports" v:prompt="" v:type="0" v:format="" v:sortKey="Network"
						v:invis="false" v:ask="false" v:langID="1033" v:cal="0"/>
				<v:cp v:nameU="CommunityString" v:lbl="Community String" v:prompt="" v:type="0" v:format="" v:sortKey="Network"
						v:invis="false" v:ask="false" v:langID="1033" v:cal="0"/>
				<v:cp v:nameU="NetworkDescription" v:lbl="Network Description" v:prompt="" v:type="0" v:format=""
						v:sortKey="Network" v:invis="false" v:ask="false" v:langID="1033" v:cal="0"/>
				<v:cp v:nameU="MACAddress" v:lbl="MAC Address" v:prompt="" v:type="0" v:format="" v:sortKey="Network"
						v:invis="false" v:ask="false" v:langID="1033" v:cal="0"/>
				<v:cp v:nameU="CPU" v:lbl="CPU" v:prompt="" v:type="0" v:format="" v:sortKey="Workstation" v:invis="false"
						v:ask="false" v:langID="1033" v:cal="0"/>
				<v:cp v:nameU="Memory" v:lbl="Memory" v:prompt="" v:type="0" v:format="" v:sortKey="Workstation" v:invis="false"
						v:ask="false" v:langID="1033" v:cal="0"/>
				<v:cp v:nameU="OperatingSystem" v:lbl="Operating System" v:prompt="" v:type="0" v:format="" v:sortKey="Workstation"
						v:invis="false" v:ask="false" v:langID="1033" v:cal="0"/>
				<v:cp v:nameU="HardDriveSize" v:lbl="Hard Drive Capacity" v:prompt="" v:type="0" v:format=""
						v:sortKey="Workstation" v:invis="false" v:ask="false" v:langID="1033" v:cal="0"/>
				<v:cp v:nameU="Department" v:lbl="Department" v:prompt="" v:type="0" v:format="" v:sortKey="" v:invis="false"
						v:ask="false" v:langID="1033" v:cal="0"/>
				<v:cp v:nameU="ShapeClass" v:lbl="ShapeClass" v:prompt="" v:type="0" v:format="" v:sortKey="" v:invis="true"
						v:ask="false" v:langID="1033" v:cal="0" v:val="VT4(Equipment)"/>
				<v:cp v:nameU="ShapeType" v:lbl="ShapeType" v:prompt="" v:type="0" v:format="" v:sortKey="" v:invis="true"
						v:ask="false" v:langID="1033" v:cal="0" v:val="VT4(Computer)"/>
				<v:cp v:nameU="SubShapeType" v:lbl="SubShapeType" v:prompt="" v:type="0" v:format="" v:sortKey="" v:invis="true"
						v:ask="false" v:langID="1033" v:cal="0" v:val="VT4(Desktop)"/>
				<v:cp v:nameU="BelongsTo" v:lbl="Belongs To" v:prompt="" v:type="0" v:format="" v:sortKey="" v:invis="true"
						v:ask="false" v:langID="1033" v:cal="0"/>
			</v:custProps>
			<v:userDefs>
				<v:ud v:nameU="visVersion" v:prompt="" v:val="VT0(15):26"/>
				<v:ud v:nameU="ShapeClass" v:prompt="" v:val="VT0(5):26"/>
				<v:ud v:nameU="SolSH" v:prompt="" v:val="VT15({BF0433D9-CD73-4EB5-8390-8653BE590246}):41"/>
				<v:ud v:nameU="visLegendShape" v:prompt="" v:val="VT0(2):26"/>
			</v:userDefs>
			<title>PC</title>
			<g id="shape2-2" v:mID="2" v:groupContext="shape" transform="translate(0,-3.60134)">
				<title>Sheet.2</title>
				<path d="M36.58 302.84 L36.58 307.4 L39.34 307.4 L41.94 310.67 L54 310.67 L54 269.31 L36.58 269.31 L36.58 275.24
							 L44.05 275.24 L44.05 302.84 L36.58 302.84 ZM44.05 275.24 L2.69 275.24 L2.69 302.84 L44.05 302.84 L44.05
							 275.24 ZM46.28 316.11 L39.34 307.4 L6.94 307.4 L0 316.11 L46.28 316.11 ZM26.78 302.84 L19.5 302.84 L19.5
							 307.4 L26.78 307.4 L26.78 302.84 Z" class="st1"/>
			</g>
			<g id="shape3-4" v:mID="3" v:groupContext="shape" transform="translate(5.37425,-19.3495)">
				<title>Sheet.3</title>
				<v:userDefs>
					<v:ud v:nameU="SurroundingRegionColor" v:prompt="" v:val="VT0(1):26"/>
				</v:userDefs>
				<path d="M36.05 293.73 L0 293.73 L0 316.11 L36.05 316.11 L36.05 293.73 Z" class="st1"/>
			</g>
			<g id="shape4-6" v:mID="4" v:groupContext="shape" transform="translate(6.29814,-5.39773)">
				<title>Sheet.4</title>
				<v:userDefs>
					<v:ud v:nameU="SurroundingRegionColor" v:prompt="" v:val="VT0(1):26"/>
				</v:userDefs>
				<path d="M40.73 275.73 L44.46 275.73 L44.46 274.28 L40.73 274.28 L40.73 275.73 ZM40.73 278.33 L44.46 278.33 L44.46
							 276.87 L40.73 276.87 L40.73 278.33 ZM31.6 312.73 L29.55 312.73 L30.7 314.01 L32.91 314.01 L31.6 312.73
							 ZM29.28 310.46 L27.5 310.46 L28.74 311.84 L30.69 311.84 L29.28 310.46 ZM28.44 312.73 L26.38 312.73 L27.29
							 314.01 L29.5 314.01 L28.44 312.73 ZM26.55 310.46 L24.78 310.46 L25.75 311.84 L27.7 311.84 L26.55 310.46
							 ZM25.27 312.73 L23.22 312.73 L23.87 314.01 L26.09 314.01 L25.27 312.73 ZM23.83 310.46 L22.06 310.46
							 L22.77 311.86 L24.72 311.86 L23.83 310.46 ZM22.11 312.73 L20.05 312.73 L20.46 314.01 L22.68 314.01 L22.11
							 312.73 ZM21.14 310.56 L19.36 310.56 L19.78 311.86 L21.73 311.86 L21.14 310.56 ZM18.95 312.73 L16.89
							 312.73 L17.05 314.01 L19.27 314.01 L18.95 312.73 ZM18.43 310.67 L16.63 310.67 L16.79 311.95 L18.75 311.95
							 L18.43 310.67 ZM15.66 310.67 L13.86 310.67 L13.78 311.95 L15.74 311.95 L15.66 310.67 ZM15.78 312.73
							 L13.73 312.73 L13.64 314.01 L15.86 314.01 L15.78 312.73 ZM12.9 310.67 L11.1 310.67 L10.77 311.95 L12.73
							 311.95 L12.9 310.67 ZM12.62 312.73 L10.56 312.73 L10.23 314.01 L12.45 314.01 L12.62 312.73 ZM23.9 314.83
							 L9.39 314.83 L9.01 316.11 L24.53 316.11 L23.9 314.83 ZM10.13 310.67 L8.33 310.67 L7.76 311.95 L9.71
							 311.95 L10.13 310.67 ZM9.46 312.73 L7.4 312.73 L6.82 314.01 L9.04 314.01 L9.46 312.73 ZM7.37 310.67
							 L5.57 310.67 L4.74 311.95 L6.7 311.95 L7.37 310.67 ZM6.29 312.73 L4.24 312.73 L3.41 314.01 L5.63 314.01
							 L6.29 312.73 ZM4.6 310.67 L2.8 310.67 L1.73 311.95 L3.69 311.95 L4.6 310.67 ZM3.13 312.73 L1.07 312.73
							 L0 314.01 L2.22 314.01 L3.13 312.73 Z" class="st2"/>
			</g>
		</g>
		<g id="shape35-9" v:mID="35" v:groupContext="shape" transform="translate(204,-40.875)">
			<title>Database</title>
			<v:userDefs>
				<v:ud v:nameU="msvShapeCategories" v:prompt="" v:val="VT4(Icon)"/>
				<v:ud v:nameU="visVersion" v:prompt="" v:val="VT0(15):26"/>
			</v:userDefs>
			<path d="M-0.02 278.9 A15.9174 8.57174 179.39 1 1 31.81 278.56 A15.9174 8.57174 179.39 1 1 -0.02 278.9" class="st3"/>
			<path d="M31.79 279.02 L31.79 306.47 A15.142 8.93731 0 0 1 15.87 315.86 A15.0942 8.90911 0 0 1 -0 306.47 L0 279.02"
					class="st3"/>
		</g>
		<g id="shape36-13" v:mID="36" v:groupContext="shape" transform="translate(189.375,-132.281)">
			<title>Hard drive</title>
			<v:userDefs>
				<v:ud v:nameU="msvShapeCategories" v:prompt="" v:val="VT4(Icon)"/>
				<v:ud v:nameU="visVersion" v:prompt="" v:val="VT0(15):26"/>
			</v:userDefs>
			<path d="M33.75 307.67 L33.75 309.36 L6.75 309.36 L6.75 307.67 L33.75 307.67 ZM33.75 302.61 L33.75 304.29 L6.75 304.29
						 L6.75 302.61 L33.75 302.61 ZM47.25 304.29 L47.25 309.36 L42.19 309.36 L42.19 304.29 L47.25 304.29 ZM50.63
						 312.73 L50.63 299.23 L3.37 299.23 L3.38 312.73 L50.63 312.73 ZM13.46 284.04 C12.12 285.77 6.6 292.87 4.28
						 295.86 L49.72 295.86 C47.4 292.87 41.88 285.77 40.54 284.04 L13.46 284.04 ZM52.96 294.52 C53.53 295.26 54
						 296.62 54 297.54 L54 314.42 C54 315.35 53.24 316.11 52.31 316.11 L1.69 316.11 C0.76 316.11 -0 315.35 0 314.42
						 L0 297.54 C-0 296.62 0.47 295.26 1.04 294.52 L10.78 282 C11.35 281.27 12.57 280.67 13.5 280.67 L40.5 280.67
						 C41.43 280.67 42.65 281.27 43.22 282 L52.96 294.52 Z" class="st4"/>
		</g>
		<g id="shape38-15" v:mID="38" v:groupContext="shape" transform="translate(310.875,-53.25)">
			<title>Cloud</title>
			<v:userDefs>
				<v:ud v:nameU="visVersion" v:val="VT0(15):26"/>
			</v:userDefs>
			<path d="M5.65 229.29 A10.8141 10.7466 0 0 1 9.34 209.54 A14.6981 14.6064 0 0 1 23.26 187.38 A16.8772 16.7718 0 0 1 47.13
						 168.41 A11.5179 11.446 0 0 1 67.91 158.57 A12.6478 12.5688 0 0 1 90.14 152.01 A24.9888 24.8328 0 0 1 124.88
						 147.88 A7.46572 7.41912 0 0 1 139.48 148.12 A8.16205 7.01068 25.64 0 1 154.96 147.83 A7.57517 4.99614 8.16
						 0 1 168.29 152.01 A14.1251 9.31642 11.45 0 1 195.42 158.62 A8.50349 5.63063 143.77 0 1 205.08 164.99 A14.3472
						 14.2576 0 0 1 228.07 180.42 A15.8492 10.456 10.26 0 1 237.34 193.65 A20.2803 13.3701 177.49 0 1 251.05 215.72
						 A11.723 7.72821 0 0 1 252.78 229.29 A5.85096 5.81443 0 1 1 251.83 239.4 A12.5891 12.5105 0 0 1 243.58 260.13
						 A8.30622 6.54626 178.27 1 1 235.17 271.2 A16.8772 16.7718 0 0 1 211.31 290.17 A13.1966 8.69967 0 0 1 190.52
						 300.02 A10.4918 10.4264 0 0 1 170.41 305.66 A10.9435 8.31434 5.89 0 1 149.53 309.64 A10.3469 6.82101 0 0
						 1 129.22 310.75 A13.234 8.72429 0 0 1 104.02 309.04 A12.0481 7.95035 11.94 0 1 82.88 300.57 A10.4534 5.93386
						 9.71 1 1 64.27 294.38 A12.3754 12.2981 0 0 1 46.84 280.2 A16.8909 16.7854 0 0 1 26.25 280.2 A29.6591 19.5598
						 7.39 0 1 14.85 260.13 A11.6841 11.6111 0 0 1 4.16 240.08 A11.4829 7.57423 11.68 0 1 5.65 229.29 Z"
					class="st5"/>
		</g>
		<g id="group40-17" transform="translate(34.875,-121.5)" v:mID="40" v:groupContext="group">
			<v:custProps>
				<v:cp v:nameU="AssetNumber" v:lbl="Asset Number" v:prompt="" v:type="0" v:format="" v:sortKey="Asset"
						v:invis="false" v:ask="false" v:langID="1033" v:cal="0"/>
				<v:cp v:nameU="SerialNumber" v:lbl="Serial Number" v:prompt="" v:type="0" v:format="" v:sortKey="Asset"
						v:invis="false" v:ask="false" v:langID="1033" v:cal="0"/>
				<v:cp v:nameU="Location" v:lbl="Location" v:prompt="" v:type="0" v:format="" v:sortKey="Asset" v:invis="false"
						v:ask="false" v:langID="1033" v:cal="0"/>
				<v:cp v:nameU="Building" v:lbl="Building" v:prompt="" v:type="0" v:format="" v:sortKey="Asset" v:invis="false"
						v:ask="false" v:langID="1033" v:cal="0"/>
				<v:cp v:nameU="Room" v:lbl="Room" v:prompt="" v:type="0" v:format="" v:sortKey="Asset" v:invis="false"
						v:ask="false" v:langID="1033" v:cal="0"/>
				<v:cp v:nameU="Manufacturer" v:lbl="Manufacturer" v:prompt="" v:type="0" v:format="" v:sortKey="Equipment"
						v:invis="false" v:ask="false" v:langID="1033" v:cal="0"/>
				<v:cp v:nameU="ProductNumber" v:lbl="Product Number" v:prompt="" v:type="0" v:format="" v:sortKey="Equipment"
						v:invis="false" v:ask="false" v:langID="1033" v:cal="0"/>
				<v:cp v:nameU="PartNumber" v:lbl="Part Number" v:prompt="" v:type="0" v:format="" v:sortKey="Equipment"
						v:invis="false" v:ask="false" v:langID="1033" v:cal="0"/>
				<v:cp v:nameU="ProductDescription" v:lbl="Product Description" v:prompt="" v:type="0" v:format=""
						v:sortKey="Equipment" v:invis="false" v:ask="false" v:langID="1033" v:cal="0"/>
				<v:cp v:nameU="NetworkName" v:lbl="Network Name" v:prompt="" v:type="0" v:format="" v:sortKey="Network"
						v:invis="false" v:ask="false" v:langID="1033" v:cal="0"/>
				<v:cp v:nameU="IPAddress" v:lbl="IP Address" v:prompt="" v:type="0" v:format="" v:sortKey="Network" v:invis="false"
						v:ask="false" v:langID="1033" v:cal="0"/>
				<v:cp v:nameU="SubnetMask" v:lbl="Subnet Mask" v:prompt="" v:type="0" v:format="" v:sortKey="Network"
						v:invis="false" v:ask="false" v:langID="1033" v:cal="0"/>
				<v:cp v:nameU="AdminInterface" v:lbl="Administrative Interface" v:prompt="" v:type="0" v:format=""
						v:sortKey="Network" v:invis="false" v:ask="false" v:langID="1033" v:cal="0"/>
				<v:cp v:nameU="NumberofPorts" v:lbl="Number of Ports" v:prompt="" v:type="0" v:format="" v:sortKey="Network"
						v:invis="false" v:ask="false" v:langID="1033" v:cal="0"/>
				<v:cp v:nameU="CommunityString" v:lbl="Community String" v:prompt="" v:type="0" v:format="" v:sortKey="Network"
						v:invis="false" v:ask="false" v:langID="1033" v:cal="0"/>
				<v:cp v:nameU="NetworkDescription" v:lbl="Network Description" v:prompt="" v:type="0" v:format=""
						v:sortKey="Network" v:invis="false" v:ask="false" v:langID="1033" v:cal="0"/>
				<v:cp v:nameU="MACAddress" v:lbl="MAC Address" v:prompt="" v:type="0" v:format="" v:sortKey="Network"
						v:invis="false" v:ask="false" v:langID="1033" v:cal="0"/>
				<v:cp v:nameU="CPU" v:lbl="CPU" v:prompt="" v:type="0" v:format="" v:sortKey="Workstation" v:invis="false"
						v:ask="false" v:langID="1033" v:cal="0"/>
				<v:cp v:nameU="Memory" v:lbl="Memory" v:prompt="" v:type="0" v:format="" v:sortKey="Workstation" v:invis="false"
						v:ask="false" v:langID="1033" v:cal="0"/>
				<v:cp v:nameU="OperatingSystem" v:lbl="Operating System" v:prompt="" v:type="0" v:format="" v:sortKey="Workstation"
						v:invis="false" v:ask="false" v:langID="1033" v:cal="0"/>
				<v:cp v:nameU="HardDriveSize" v:lbl="Hard Drive Capacity" v:prompt="" v:type="0" v:format=""
						v:sortKey="Workstation" v:invis="false" v:ask="false" v:langID="1033" v:cal="0"/>
				<v:cp v:nameU="Department" v:lbl="Department" v:prompt="" v:type="0" v:format="" v:sortKey="" v:invis="false"
						v:ask="false" v:langID="1033" v:cal="0"/>
				<v:cp v:nameU="ShapeClass" v:lbl="ShapeClass" v:prompt="" v:type="0" v:format="" v:sortKey="" v:invis="true"
						v:ask="false" v:langID="1033" v:cal="0" v:val="VT4(Equipment)"/>
				<v:cp v:nameU="ShapeType" v:lbl="ShapeType" v:prompt="" v:type="0" v:format="" v:sortKey="" v:invis="true"
						v:ask="false" v:langID="1033" v:cal="0" v:val="VT4(Computer)"/>
				<v:cp v:nameU="SubShapeType" v:lbl="SubShapeType" v:prompt="" v:type="0" v:format="" v:sortKey="" v:invis="true"
						v:ask="false" v:langID="1033" v:cal="0" v:val="VT4(Desktop)"/>
				<v:cp v:nameU="BelongsTo" v:lbl="Belongs To" v:prompt="" v:type="0" v:format="" v:sortKey="" v:invis="true"
						v:ask="false" v:langID="1033" v:cal="0"/>
			</v:custProps>
			<v:userDefs>
				<v:ud v:nameU="visVersion" v:prompt="" v:val="VT0(15):26"/>
				<v:ud v:nameU="ShapeClass" v:prompt="" v:val="VT0(5):26"/>
				<v:ud v:nameU="SolSH" v:prompt="" v:val="VT15({BF0433D9-CD73-4EB5-8390-8653BE590246}):41"/>
				<v:ud v:nameU="visLegendShape" v:prompt="" v:val="VT0(2):26"/>
			</v:userDefs>
			<title>PC.40</title>
			<g id="shape41-18" v:mID="41" v:groupContext="shape" transform="translate(0,-3.60134)">
				<title>Sheet.41</title>
				<path d="M36.58 302.84 L36.58 307.4 L39.34 307.4 L41.94 310.67 L54 310.67 L54 269.31 L36.58 269.31 L36.58 275.24
							 L44.05 275.24 L44.05 302.84 L36.58 302.84 ZM44.05 275.24 L2.69 275.24 L2.69 302.84 L44.05 302.84 L44.05
							 275.24 ZM46.28 316.11 L39.34 307.4 L6.94 307.4 L0 316.11 L46.28 316.11 ZM26.78 302.84 L19.5 302.84 L19.5
							 307.4 L26.78 307.4 L26.78 302.84 Z" class="st1"/>
			</g>
			<g id="shape42-20" v:mID="42" v:groupContext="shape" transform="translate(5.37425,-19.3495)">
				<title>Sheet.42</title>
				<v:userDefs>
					<v:ud v:nameU="SurroundingRegionColor" v:prompt="" v:val="VT0(1):26"/>
				</v:userDefs>
				<path d="M36.05 293.73 L0 293.73 L0 316.11 L36.05 316.11 L36.05 293.73 Z" class="st1"/>
			</g>
			<g id="shape43-22" v:mID="43" v:groupContext="shape" transform="translate(6.29814,-5.39773)">
				<title>Sheet.43</title>
				<v:userDefs>
					<v:ud v:nameU="SurroundingRegionColor" v:prompt="" v:val="VT0(1):26"/>
				</v:userDefs>
				<path d="M40.73 275.73 L44.46 275.73 L44.46 274.28 L40.73 274.28 L40.73 275.73 ZM40.73 278.33 L44.46 278.33 L44.46
							 276.87 L40.73 276.87 L40.73 278.33 ZM31.6 312.73 L29.55 312.73 L30.7 314.01 L32.91 314.01 L31.6 312.73
							 ZM29.28 310.46 L27.5 310.46 L28.74 311.84 L30.69 311.84 L29.28 310.46 ZM28.44 312.73 L26.38 312.73 L27.29
							 314.01 L29.5 314.01 L28.44 312.73 ZM26.55 310.46 L24.78 310.46 L25.75 311.84 L27.7 311.84 L26.55 310.46
							 ZM25.27 312.73 L23.22 312.73 L23.87 314.01 L26.09 314.01 L25.27 312.73 ZM23.83 310.46 L22.06 310.46
							 L22.77 311.86 L24.72 311.86 L23.83 310.46 ZM22.11 312.73 L20.05 312.73 L20.46 314.01 L22.68 314.01 L22.11
							 312.73 ZM21.14 310.56 L19.36 310.56 L19.78 311.86 L21.73 311.86 L21.14 310.56 ZM18.95 312.73 L16.89
							 312.73 L17.05 314.01 L19.27 314.01 L18.95 312.73 ZM18.43 310.67 L16.63 310.67 L16.79 311.95 L18.75 311.95
							 L18.43 310.67 ZM15.66 310.67 L13.86 310.67 L13.78 311.95 L15.74 311.95 L15.66 310.67 ZM15.78 312.73
							 L13.73 312.73 L13.64 314.01 L15.86 314.01 L15.78 312.73 ZM12.9 310.67 L11.1 310.67 L10.77 311.95 L12.73
							 311.95 L12.9 310.67 ZM12.62 312.73 L10.56 312.73 L10.23 314.01 L12.45 314.01 L12.62 312.73 ZM23.9 314.83
							 L9.39 314.83 L9.01 316.11 L24.53 316.11 L23.9 314.83 ZM10.13 310.67 L8.33 310.67 L7.76 311.95 L9.71
							 311.95 L10.13 310.67 ZM9.46 312.73 L7.4 312.73 L6.82 314.01 L9.04 314.01 L9.46 312.73 ZM7.37 310.67
							 L5.57 310.67 L4.74 311.95 L6.7 311.95 L7.37 310.67 ZM6.29 312.73 L4.24 312.73 L3.41 314.01 L5.63 314.01
							 L6.29 312.73 ZM4.6 310.67 L2.8 310.67 L1.73 311.95 L3.69 311.95 L4.6 310.67 ZM3.13 312.73 L1.07 312.73
							 L0 314.01 L2.22 314.01 L3.13 312.73 Z" class="st2"/>
			</g>
		</g>
		<g id="group44-25" transform="translate(73.5,-18)" v:mID="44" v:groupContext="group">
			<v:custProps>
				<v:cp v:nameU="AssetNumber" v:lbl="Asset Number" v:prompt="" v:type="0" v:format="" v:sortKey="Asset"
						v:invis="false" v:ask="false" v:langID="1033" v:cal="0"/>
				<v:cp v:nameU="SerialNumber" v:lbl="Serial Number" v:prompt="" v:type="0" v:format="" v:sortKey="Asset"
						v:invis="false" v:ask="false" v:langID="1033" v:cal="0"/>
				<v:cp v:nameU="Location" v:lbl="Location" v:prompt="" v:type="0" v:format="" v:sortKey="Asset" v:invis="false"
						v:ask="false" v:langID="1033" v:cal="0"/>
				<v:cp v:nameU="Building" v:lbl="Building" v:prompt="" v:type="0" v:format="" v:sortKey="Asset" v:invis="false"
						v:ask="false" v:langID="1033" v:cal="0"/>
				<v:cp v:nameU="Room" v:lbl="Room" v:prompt="" v:type="0" v:format="" v:sortKey="Asset" v:invis="false"
						v:ask="false" v:langID="1033" v:cal="0"/>
				<v:cp v:nameU="Manufacturer" v:lbl="Manufacturer" v:prompt="" v:type="0" v:format="" v:sortKey="Equipment"
						v:invis="false" v:ask="false" v:langID="1033" v:cal="0"/>
				<v:cp v:nameU="ProductNumber" v:lbl="Product Number" v:prompt="" v:type="0" v:format="" v:sortKey="Equipment"
						v:invis="false" v:ask="false" v:langID="1033" v:cal="0"/>
				<v:cp v:nameU="PartNumber" v:lbl="Part Number" v:prompt="" v:type="0" v:format="" v:sortKey="Equipment"
						v:invis="false" v:ask="false" v:langID="1033" v:cal="0"/>
				<v:cp v:nameU="ProductDescription" v:lbl="Product Description" v:prompt="" v:type="0" v:format=""
						v:sortKey="Equipment" v:invis="false" v:ask="false" v:langID="1033" v:cal="0"/>
				<v:cp v:nameU="NetworkName" v:lbl="Network Name" v:prompt="" v:type="0" v:format="" v:sortKey="Network"
						v:invis="false" v:ask="false" v:langID="1033" v:cal="0"/>
				<v:cp v:nameU="IPAddress" v:lbl="IP Address" v:prompt="" v:type="0" v:format="" v:sortKey="Network" v:invis="false"
						v:ask="false" v:langID="1033" v:cal="0"/>
				<v:cp v:nameU="SubnetMask" v:lbl="Subnet Mask" v:prompt="" v:type="0" v:format="" v:sortKey="Network"
						v:invis="false" v:ask="false" v:langID="1033" v:cal="0"/>
				<v:cp v:nameU="AdminInterface" v:lbl="Administrative Interface" v:prompt="" v:type="0" v:format=""
						v:sortKey="Network" v:invis="false" v:ask="false" v:langID="1033" v:cal="0"/>
				<v:cp v:nameU="NumberofPorts" v:lbl="Number of Ports" v:prompt="" v:type="0" v:format="" v:sortKey="Network"
						v:invis="false" v:ask="false" v:langID="1033" v:cal="0"/>
				<v:cp v:nameU="CommunityString" v:lbl="Community String" v:prompt="" v:type="0" v:format="" v:sortKey="Network"
						v:invis="false" v:ask="false" v:langID="1033" v:cal="0"/>
				<v:cp v:nameU="NetworkDescription" v:lbl="Network Description" v:prompt="" v:type="0" v:format=""
						v:sortKey="Network" v:invis="false" v:ask="false" v:langID="1033" v:cal="0"/>
				<v:cp v:nameU="MACAddress" v:lbl="MAC Address" v:prompt="" v:type="0" v:format="" v:sortKey="Network"
						v:invis="false" v:ask="false" v:langID="1033" v:cal="0"/>
				<v:cp v:nameU="CPU" v:lbl="CPU" v:prompt="" v:type="0" v:format="" v:sortKey="Workstation" v:invis="false"
						v:ask="false" v:langID="1033" v:cal="0"/>
				<v:cp v:nameU="Memory" v:lbl="Memory" v:prompt="" v:type="0" v:format="" v:sortKey="Workstation" v:invis="false"
						v:ask="false" v:langID="1033" v:cal="0"/>
				<v:cp v:nameU="OperatingSystem" v:lbl="Operating System" v:prompt="" v:type="0" v:format="" v:sortKey="Workstation"
						v:invis="false" v:ask="false" v:langID="1033" v:cal="0"/>
				<v:cp v:nameU="HardDriveSize" v:lbl="Hard Drive Capacity" v:prompt="" v:type="0" v:format=""
						v:sortKey="Workstation" v:invis="false" v:ask="false" v:langID="1033" v:cal="0"/>
				<v:cp v:nameU="Department" v:lbl="Department" v:prompt="" v:type="0" v:format="" v:sortKey="" v:invis="false"
						v:ask="false" v:langID="1033" v:cal="0"/>
				<v:cp v:nameU="ShapeClass" v:lbl="ShapeClass" v:prompt="" v:type="0" v:format="" v:sortKey="" v:invis="true"
						v:ask="false" v:langID="1033" v:cal="0" v:val="VT4(Equipment)"/>
				<v:cp v:nameU="ShapeType" v:lbl="ShapeType" v:prompt="" v:type="0" v:format="" v:sortKey="" v:invis="true"
						v:ask="false" v:langID="1033" v:cal="0" v:val="VT4(Computer)"/>
				<v:cp v:nameU="SubShapeType" v:lbl="SubShapeType" v:prompt="" v:type="0" v:format="" v:sortKey="" v:invis="true"
						v:ask="false" v:langID="1033" v:cal="0" v:val="VT4(Desktop)"/>
				<v:cp v:nameU="BelongsTo" v:lbl="Belongs To" v:prompt="" v:type="0" v:format="" v:sortKey="" v:invis="true"
						v:ask="false" v:langID="1033" v:cal="0"/>
			</v:custProps>
			<v:userDefs>
				<v:ud v:nameU="visVersion" v:prompt="" v:val="VT0(15):26"/>
				<v:ud v:nameU="ShapeClass" v:prompt="" v:val="VT0(5):26"/>
				<v:ud v:nameU="SolSH" v:prompt="" v:val="VT15({BF0433D9-CD73-4EB5-8390-8653BE590246}):41"/>
				<v:ud v:nameU="visLegendShape" v:prompt="" v:val="VT0(2):26"/>
			</v:userDefs>
			<title>PC.44</title>
			<g id="shape45-26" v:mID="45" v:groupContext="shape" transform="translate(0,-3.60134)">
				<title>Sheet.45</title>
				<path d="M36.58 302.84 L36.58 307.4 L39.34 307.4 L41.94 310.67 L54 310.67 L54 269.31 L36.58 269.31 L36.58 275.24
							 L44.05 275.24 L44.05 302.84 L36.58 302.84 ZM44.05 275.24 L2.69 275.24 L2.69 302.84 L44.05 302.84 L44.05
							 275.24 ZM46.28 316.11 L39.34 307.4 L6.94 307.4 L0 316.11 L46.28 316.11 ZM26.78 302.84 L19.5 302.84 L19.5
							 307.4 L26.78 307.4 L26.78 302.84 Z" class="st1"/>
			</g>
			<g id="shape46-28" v:mID="46" v:groupContext="shape" transform="translate(5.37425,-19.3495)">
				<title>Sheet.46</title>
				<v:userDefs>
					<v:ud v:nameU="SurroundingRegionColor" v:prompt="" v:val="VT0(1):26"/>
				</v:userDefs>
				<path d="M36.05 293.73 L0 293.73 L0 316.11 L36.05 316.11 L36.05 293.73 Z" class="st1"/>
			</g>
			<g id="shape47-30" v:mID="47" v:groupContext="shape" transform="translate(6.29814,-5.39773)">
				<title>Sheet.47</title>
				<v:userDefs>
					<v:ud v:nameU="SurroundingRegionColor" v:prompt="" v:val="VT0(1):26"/>
				</v:userDefs>
				<path d="M40.73 275.73 L44.46 275.73 L44.46 274.28 L40.73 274.28 L40.73 275.73 ZM40.73 278.33 L44.46 278.33 L44.46
							 276.87 L40.73 276.87 L40.73 278.33 ZM31.6 312.73 L29.55 312.73 L30.7 314.01 L32.91 314.01 L31.6 312.73
							 ZM29.28 310.46 L27.5 310.46 L28.74 311.84 L30.69 311.84 L29.28 310.46 ZM28.44 312.73 L26.38 312.73 L27.29
							 314.01 L29.5 314.01 L28.44 312.73 ZM26.55 310.46 L24.78 310.46 L25.75 311.84 L27.7 311.84 L26.55 310.46
							 ZM25.27 312.73 L23.22 312.73 L23.87 314.01 L26.09 314.01 L25.27 312.73 ZM23.83 310.46 L22.06 310.46
							 L22.77 311.86 L24.72 311.86 L23.83 310.46 ZM22.11 312.73 L20.05 312.73 L20.46 314.01 L22.68 314.01 L22.11
							 312.73 ZM21.14 310.56 L19.36 310.56 L19.78 311.86 L21.73 311.86 L21.14 310.56 ZM18.95 312.73 L16.89
							 312.73 L17.05 314.01 L19.27 314.01 L18.95 312.73 ZM18.43 310.67 L16.63 310.67 L16.79 311.95 L18.75 311.95
							 L18.43 310.67 ZM15.66 310.67 L13.86 310.67 L13.78 311.95 L15.74 311.95 L15.66 310.67 ZM15.78 312.73
							 L13.73 312.73 L13.64 314.01 L15.86 314.01 L15.78 312.73 ZM12.9 310.67 L11.1 310.67 L10.77 311.95 L12.73
							 311.95 L12.9 310.67 ZM12.62 312.73 L10.56 312.73 L10.23 314.01 L12.45 314.01 L12.62 312.73 ZM23.9 314.83
							 L9.39 314.83 L9.01 316.11 L24.53 316.11 L23.9 314.83 ZM10.13 310.67 L8.33 310.67 L7.76 311.95 L9.71
							 311.95 L10.13 310.67 ZM9.46 312.73 L7.4 312.73 L6.82 314.01 L9.04 314.01 L9.46 312.73 ZM7.37 310.67
							 L5.57 310.67 L4.74 311.95 L6.7 311.95 L7.37 310.67 ZM6.29 312.73 L4.24 312.73 L3.41 314.01 L5.63 314.01
							 L6.29 312.73 ZM4.6 310.67 L2.8 310.67 L1.73 311.95 L3.69 311.95 L4.6 310.67 ZM3.13 312.73 L1.07 312.73
							 L0 314.01 L2.22 314.01 L3.13 312.73 Z" class="st2"/>
			</g>
		</g>
		<g id="shape48-33" v:mID="48" v:groupContext="shape" transform="translate(367.125,-165)">
			<title>Hard drive.48</title>
			<v:userDefs>
				<v:ud v:nameU="msvShapeCategories" v:prompt="" v:val="VT4(Icon)"/>
				<v:ud v:nameU="visVersion" v:prompt="" v:val="VT0(15):26"/>
			</v:userDefs>
			<path d="M33.75 307.67 L33.75 309.36 L6.75 309.36 L6.75 307.67 L33.75 307.67 ZM33.75 302.61 L33.75 304.29 L6.75 304.29
						 L6.75 302.61 L33.75 302.61 ZM47.25 304.29 L47.25 309.36 L42.19 309.36 L42.19 304.29 L47.25 304.29 ZM50.63
						 312.73 L50.63 299.23 L3.37 299.23 L3.38 312.73 L50.63 312.73 ZM13.46 284.04 C12.12 285.77 6.6 292.87 4.28
						 295.86 L49.72 295.86 C47.4 292.87 41.88 285.77 40.54 284.04 L13.46 284.04 ZM52.96 294.52 C53.53 295.26 54
						 296.62 54 297.54 L54 314.42 C54 315.35 53.24 316.11 52.31 316.11 L1.69 316.11 C0.76 316.11 -0 315.35 0 314.42
						 L0 297.54 C-0 296.62 0.47 295.26 1.04 294.52 L10.78 282 C11.35 281.27 12.57 280.67 13.5 280.67 L40.5 280.67
						 C41.43 280.67 42.65 281.27 43.22 282 L52.96 294.52 Z" class="st4"/>
		</g>
		<g id="shape49-35" v:mID="49" v:groupContext="shape" transform="translate(360.375,-97.5)">
			<title>Hard drive.49</title>
			<v:userDefs>
				<v:ud v:nameU="msvShapeCategories" v:prompt="" v:val="VT4(Icon)"/>
				<v:ud v:nameU="visVersion" v:prompt="" v:val="VT0(15):26"/>
			</v:userDefs>
			<path d="M33.75 307.67 L33.75 309.36 L6.75 309.36 L6.75 307.67 L33.75 307.67 ZM33.75 302.61 L33.75 304.29 L6.75 304.29
						 L6.75 302.61 L33.75 302.61 ZM47.25 304.29 L47.25 309.36 L42.19 309.36 L42.19 304.29 L47.25 304.29 ZM50.63
						 312.73 L50.63 299.23 L3.37 299.23 L3.38 312.73 L50.63 312.73 ZM13.46 284.04 C12.12 285.77 6.6 292.87 4.28
						 295.86 L49.72 295.86 C47.4 292.87 41.88 285.77 40.54 284.04 L13.46 284.04 ZM52.96 294.52 C53.53 295.26 54
						 296.62 54 297.54 L54 314.42 C54 315.35 53.24 316.11 52.31 316.11 L1.69 316.11 C0.76 316.11 -0 315.35 0 314.42
						 L0 297.54 C-0 296.62 0.47 295.26 1.04 294.52 L10.78 282 C11.35 281.27 12.57 280.67 13.5 280.67 L40.5 280.67
						 C41.43 280.67 42.65 281.27 43.22 282 L52.96 294.52 Z" class="st4"/>
		</g>
		<g id="shape50-37" v:mID="50" v:groupContext="shape" transform="translate(436.875,-150)">
			<title>Hard drive.50</title>
			<v:userDefs>
				<v:ud v:nameU="msvShapeCategories" v:prompt="" v:val="VT4(Icon)"/>
				<v:ud v:nameU="visVersion" v:prompt="" v:val="VT0(15):26"/>
			</v:userDefs>
			<path d="M33.75 307.67 L33.75 309.36 L6.75 309.36 L6.75 307.67 L33.75 307.67 ZM33.75 302.61 L33.75 304.29 L6.75 304.29
						 L6.75 302.61 L33.75 302.61 ZM47.25 304.29 L47.25 309.36 L42.19 309.36 L42.19 304.29 L47.25 304.29 ZM50.63
						 312.73 L50.63 299.23 L3.37 299.23 L3.38 312.73 L50.63 312.73 ZM13.46 284.04 C12.12 285.77 6.6 292.87 4.28
						 295.86 L49.72 295.86 C47.4 292.87 41.88 285.77 40.54 284.04 L13.46 284.04 ZM52.96 294.52 C53.53 295.26 54
						 296.62 54 297.54 L54 314.42 C54 315.35 53.24 316.11 52.31 316.11 L1.69 316.11 C0.76 316.11 -0 315.35 0 314.42
						 L0 297.54 C-0 296.62 0.47 295.26 1.04 294.52 L10.78 282 C11.35 281.27 12.57 280.67 13.5 280.67 L40.5 280.67
						 C41.43 280.67 42.65 281.27 43.22 282 L52.96 294.52 Z" class="st4"/>
		</g>
		<g id="shape53-39" v:mID="53" v:groupContext="shape" transform="translate(332.271,-159.645) rotate(45)">
			<title>Sheet.53</title>
			<desc>Request</desc>
			<v:textBlock v:margins="rect(4,4,4,4)"/>
			<v:textRect cx="76" cy="306.106" width="152" height="20"/>
			<rect x="0" y="296.106" width="152" height="20" class="st6"/>
			<text x="56.11" y="309.71" class="st7" v:langID="1033"><v:paragraph v:horizAlign="1"/><v:tabList/>Request</text>		</g>
		<g id="shape59-42" v:mID="59" v:groupContext="shape" v:layerMember="0" transform="translate(128.063,-232.125)">
			<title>Message</title>
			<v:userDefs>
				<v:ud v:nameU="IsReturn" v:prompt="" v:val="VT0(0):5"/>
				<v:ud v:nameU="IsAsync" v:prompt="" v:val="VT0(0):26"/>
				<v:ud v:nameU="IsSelfMessage" v:prompt="" v:val="VT0(0):5"/>
				<v:ud v:nameU="visVersion" v:prompt="" v:val="VT0(15):26"/>
			</v:userDefs>
			<path d="M0 316.11 L59 374.08" class="st8"/>
		</g>
		<g id="shape62-48" v:mID="62" v:groupContext="shape" transform="translate(-120.504,43.4603) rotate(-45)">
			<title>Sheet.62</title>
			<desc>Request</desc>
			<v:textBlock v:margins="rect(4,4,4,4)"/>
			<v:textRect cx="76" cy="306.106" width="152" height="20"/>
			<rect x="0" y="296.106" width="152" height="20" class="st6"/>
			<text x="56.11" y="309.71" class="st7" v:langID="1033"><v:paragraph v:horizAlign="1"/><v:tabList/>Request</text>		</g>
		<g id="shape64-51" v:mID="64" v:groupContext="shape" v:layerMember="0" transform="translate(126.194,-76.1791)">
			<title>Message.64</title>
			<v:userDefs>
				<v:ud v:nameU="IsReturn" v:prompt="" v:val="VT0(0):5"/>
				<v:ud v:nameU="IsAsync" v:prompt="" v:val="VT0(0):26"/>
				<v:ud v:nameU="IsSelfMessage" v:prompt="" v:val="VT0(0):5"/>
				<v:ud v:nameU="visVersion" v:prompt="" v:val="VT0(15):26"/>
			</v:userDefs>
			<path d="M0 316.11 L56.52 261.29" class="st8"/>
		</g>
		<g id="shape69-56" v:mID="69" v:groupContext="shape" transform="translate(64.3065,-149.027)">
			<title>Sheet.69</title>
			<desc>Request</desc>
			<v:textBlock v:margins="rect(4,4,4,4)"/>
			<v:textRect cx="76" cy="306.106" width="152" height="20"/>
			<rect x="0" y="296.106" width="152" height="20" class="st6"/>
			<text x="56.11" y="309.71" class="st7" v:langID="1033"><v:paragraph v:horizAlign="1"/><v:tabList/>Request</text>		</g>
		<g id="shape70-59" v:mID="70" v:groupContext="shape" v:layerMember="0" transform="translate(96.5625,-159.608)">
			<title>Message.70</title>
			<v:userDefs>
				<v:ud v:nameU="IsReturn" v:prompt="" v:val="VT0(0):5"/>
				<v:ud v:nameU="IsAsync" v:prompt="" v:val="VT0(0):26"/>
				<v:ud v:nameU="IsSelfMessage" v:prompt="" v:val="VT0(0):5"/>
				<v:ud v:nameU="visVersion" v:prompt="" v:val="VT0(15):26"/>
			</v:userDefs>
			<path d="M0 324.59 L81.81 325.53" class="st8"/>
		</g>
		<g id="shape84-64" v:mID="84" v:groupContext="shape" transform="translate(256.755,495.263) rotate(-178.755)">
			<title>Curved  arrow</title>
			<v:userDefs>
				<v:ud v:nameU="Arrow" v:val="VT0(2):26"/>
				<v:ud v:nameU="visVersion" v:val="VT0(15):26"/>
			</v:userDefs>
			<path d="M17.25 316.11 L10.35 305.75 L6.9 309.2 L17.25 316.11 ZM17.25 247.09 L10.35 257.44 L6.9 253.99 L17.25 247.09 Z"
					class="st2"/>
			<path d="M17.25 316.11 L10.35 305.75 L6.9 309.2 L17.25 316.11" class="st10"/>
			<path d="M17.25 247.09 L10.35 257.44 L6.9 253.99 L17.25 247.09" class="st10"/>
			<path d="M17.25 247.09 A43.1352 43.1352 -180 0 0 17.25 316.11" class="st10"/>
		</g>
		<g id="shape85-69" v:mID="85" v:groupContext="shape" v:layerMember="0" transform="translate(246.75,-147.187)">
			<title>Message.85</title>
			<v:userDefs>
				<v:ud v:nameU="IsReturn" v:prompt="" v:val="VT0(0):5"/>
				<v:ud v:nameU="IsAsync" v:prompt="" v:val="VT0(0):26"/>
				<v:ud v:nameU="IsSelfMessage" v:prompt="" v:val="VT0(0):5"/>
				<v:ud v:nameU="visVersion" v:prompt="" v:val="VT0(15):26"/>
			</v:userDefs>
			<path d="M0 316.11 L107.48 295.48" class="st8"/>
		</g>
		<g id="shape86-74" v:mID="86" v:groupContext="shape" v:layerMember="0" transform="translate(247.875,-141)">
			<title>Message.86</title>
			<v:userDefs>
				<v:ud v:nameU="IsReturn" v:prompt="" v:val="VT0(0):5"/>
				<v:ud v:nameU="IsAsync" v:prompt="" v:val="VT0(0):26"/>
				<v:ud v:nameU="IsSelfMessage" v:prompt="" v:val="VT0(0):5"/>
				<v:ud v:nameU="visVersion" v:prompt="" v:val="VT0(15):26"/>
			</v:userDefs>
			<path d="M0 316.11 L99.12 340.1" class="st8"/>
		</g>
		<g id="shape87-79" v:mID="87" v:groupContext="shape" v:layerMember="0" transform="translate(249,-140.719)">
			<title>Message.87</title>
			<v:userDefs>
				<v:ud v:nameU="IsReturn" v:prompt="" v:val="VT0(0):5"/>
				<v:ud v:nameU="IsAsync" v:prompt="" v:val="VT0(0):26"/>
				<v:ud v:nameU="IsSelfMessage" v:prompt="" v:val="VT0(0):5"/>
				<v:ud v:nameU="visVersion" v:prompt="" v:val="VT0(15):26"/>
			</v:userDefs>
			<path d="M0 314.14 L172.04 300.7" class="st8"/>
		</g>
		<g id="shape88-84" v:mID="88" v:groupContext="shape" transform="translate(144.612,-126.854) rotate(-15)">
			<title>Sheet.88</title>
			<desc>Request</desc>
			<v:textBlock v:margins="rect(4,4,4,4)"/>
			<v:textRect cx="76" cy="306.106" width="152" height="20"/>
			<rect x="0" y="296.106" width="152" height="20" class="st6"/>
			<text x="56.11" y="309.71" class="st7" v:langID="1033"><v:paragraph v:horizAlign="1"/><v:tabList/>Request</text>		</g>
		<g id="shape89-87" v:mID="89" v:groupContext="shape" transform="translate(262.125,-132.375)">
			<title>Sheet.89</title>
			<desc>Request</desc>
			<v:textBlock v:margins="rect(4,4,4,4)"/>
			<v:textRect cx="76" cy="306.106" width="152" height="20"/>
			<rect x="0" y="296.106" width="152" height="20" class="st6"/>
			<text x="56.11" y="309.71" class="st7" v:langID="1033"><v:paragraph v:horizAlign="1"/><v:tabList/>Request</text>		</g>
		<g id="shape90-90" v:mID="90" v:groupContext="shape" transform="translate(292.189,-123.444) rotate(15)">
			<title>Sheet.90</title>
			<desc>Request</desc>
			<v:textBlock v:margins="rect(4,4,4,4)"/>
			<v:textRect cx="76" cy="306.106" width="152" height="20"/>
			<rect x="0" y="296.106" width="152" height="20" class="st6"/>
			<text x="56.11" y="309.71" class="st7" v:langID="1033"><v:paragraph v:horizAlign="1"/><v:tabList/>Request</text>		</g>
		<g id="shape93-93" v:mID="93" v:groupContext="shape" transform="translate(183.375,-172.875)">
			<title>Sheet.93</title>
			<desc>WebCache</desc>
			<v:textBlock v:margins="rect(4,4,4,4)"/>
			<v:textRect cx="39.375" cy="314.7" width="78.75" height="2.8125"/>
			<rect x="0" y="313.294" width="78.75" height="2.8125" class="st6"/>
			<text x="13.15" y="318.3" class="st7" v:langID="1033"><v:paragraph v:horizAlign="1"/><v:tabList/>WebCache</text>		</g>
		<g id="shape95-96" v:mID="95" v:groupContext="shape" transform="translate(62.25,-289.5)">
			<title>Sheet.95</title>
			<desc>Client</desc>
			<v:textBlock v:margins="rect(4,4,4,4)"/>
			<v:textRect cx="39.375" cy="314.7" width="78.75" height="2.8125"/>
			<rect x="0" y="313.294" width="78.75" height="2.8125" class="st6"/>
			<text x="25.27" y="318.3" class="st7" v:langID="1033"><v:paragraph v:horizAlign="1"/><v:tabList/>Client</text>		</g>
		<g id="shape96-99" v:mID="96" v:groupContext="shape" transform="translate(365.438,-232.125)">
			<title>Sheet.96</title>
			<desc>Internet</desc>
			<v:textBlock v:margins="rect(4,4,4,4)"/>
			<v:textRect cx="72.2813" cy="305.419" width="144.57" height="21.375"/>
			<rect x="0" y="294.731" width="144.563" height="21.375" class="st6"/>
			<text x="32.48" y="312.62" class="st11" v:langID="1033"><v:paragraph v:horizAlign="1"/><v:tabList/>Internet</text>		</g>
		<g id="shape97-102" v:mID="97" v:groupContext="shape" transform="translate(18.375,-175.5)">
			<title>Sheet.97</title>
			<desc>Client</desc>
			<v:textBlock v:margins="rect(4,4,4,4)"/>
			<v:textRect cx="39.375" cy="314.7" width="78.75" height="2.8125"/>
			<rect x="0" y="313.294" width="78.75" height="2.8125" class="st6"/>
			<text x="25.27" y="318.3" class="st7" v:langID="1033"><v:paragraph v:horizAlign="1"/><v:tabList/>Client</text>		</g>
		<g id="shape98-105" v:mID="98" v:groupContext="shape" transform="translate(58.875,-75)">
			<title>Sheet.98</title>
			<desc>Client</desc>
			<v:textBlock v:margins="rect(4,4,4,4)"/>
			<v:textRect cx="39.375" cy="314.7" width="78.75" height="2.8125"/>
			<rect x="0" y="313.294" width="78.75" height="2.8125" class="st6"/>
			<text x="25.27" y="318.3" class="st7" v:langID="1033"><v:paragraph v:horizAlign="1"/><v:tabList/>Client</text>		</g>
	</g>
</svg>
